<svg version="1.2" xmlns="http://www.w3.org/2000/svg" viewBox="0 0 500 500" width="500" height="500">
	<title>4265301_2248160-svg</title>
	<style>
		.s0 { fill: #95b5c6 } 
		.s1 { fill: #000000 } 
		.s2 { fill: #26382d } 
		.s3 { fill: #257f7f } 
		.s4 { fill: #773022 } 
		.s5 { fill: #fac88f } 
		.s6 { fill: #c26664 } 
		.s7 { fill: #0c465e } 
		.s8 { fill: #db544f } 
		.s9 { fill: #ce3e3e } 
		.s10 { fill: #faaf3b } 
		.s11 { fill: #0c1941 } 
		.s12 { fill: #06303d } 
		.s13 { fill: #1176b5 } 
		.s14 { fill: #0e648e } 
		.s15 { fill: #f4695e } 
		.s16 { fill: #e2524b } 
		.s17 { fill: #893e2a } 
		.s18 { fill: #f8fbfc } 
		.s19 { fill: #cbcbcb } 
		.s20 { fill: #eb1b4b } 
		.s21 { fill: #c91141 } 
		.s22 { fill: #ff8b8b } 
		.s23 { fill: #eaaf75 } 
		.s24 { fill: #2e9497 } 
		.s25 { fill: #f6921e } 
	</style>
	<g id="BACKGROUND">
		<path class="s0" d="m232.1 427.4c-109.8 0-198.5-5.4-198.5-12.2 0-6.8 88.7-12.2 198.5-12.2 109.8 0 198.5 5.4 198.5 12.2 0 6.8-88.7 12.2-198.5 12.2z"/>
	</g>
	<g id="OBJECTS">
		<g>
			<path class="s1" d="m77 367.6c-0.2 0.1-0.3 0.4-0.2 0.6l5.9 10.5c0.1 0.2 0.4 0.3 0.6 0.1 0.3-0.1 0.3-0.4 0.2-0.6l-5.8-10.4c-0.2-0.2-0.5-0.3-0.7-0.2z"/>
			<path class="s2" d="m377.2 63.2c0 0 9.5-2.5 13.6 5.2 4 7.7 0.5 15.1 1.2 19.1 0.7 4.1 2.6 6.6 2.6 6.6 0 0-8.4 8.6-20.6 2.3-7.8-3.9-7.9-6.6-7.9-6.6 0 0 1.9-9.6 4-16 2.6-7.7 3.4-10.6 7.1-10.6z"/>
			<path class="s3" d="m204.2 133.4c0 0-3.7-1.8-6.3 1.8-1.5 2.2-1.9 12.8-1.9 12.8l9-9.6z"/>
			<path class="s4" d="m396.1 132.2c0 0 22.3 7.1 23.1 7.6 0.9 0.6 19.1 23.5 19.1 23.5l-4.5 2.8-19.5-16.3-28.2-4.7z"/>
			<path class="s5" d="m437.4 163.5c0 0 1.8 1.7 2.9 1.8 1.1 0.2 4.8 0.8 4.8 0.8 0 0-1.2 1.3-2.9 2.3-1.6 1-5.6 0.6-5.6 0.6l-2.6-3.2z"/>
			<path class="s6" d="m437.1 170.3c0 0 14.7-1.9 14.5-2.6-0.1-0.6-5.1-2.4-6.6-2-1.4 0.4-3.4 2.8-5.4 2.9-2.1 0.1-3.5 0.1-3.5 0.4-0.1 0.3-0.1 1.5 1 1.3z"/>
			<path class="s5" d="m407.7 400c0 0 1.6 2.3 2.4 2.3 0.7 0 1.4 0.6 1.5 1 0.1 0.3 0.4 8.7-0.2 9.1-0.5 0.5-1.7-1.1-2.2-2-0.4-0.9-0.9-2.6-0.9-2.6l-2.7-4.6z"/>
			<path class="s7" d="m408.5 409c0 0 1.5-1.2 2.1-2.2 0.7-1.1-1-4.4-0.5-4.5 0.4-0.2 2.2-0.3 2.4 0.6 0.1 0.9 0.5 12.3-0.1 12.7-0.6 0.3-1.7-0.3-2.3-1.7-0.6-1.5-1.6-4.9-1.6-4.9z"/>
			<path class="s5" d="m398.9 408v4.4l-5.7 0.3c0 0 1.1-3.2 1.1-4.2 0.1-1 4.6-0.5 4.6-0.5z"/>
			<path class="s8" d="m98 416.3l-51.7-0.7v-5.1l51.1-3.7z"/>
			<path class="s9" d="m97.9 414.2l-3.2-1.6-48.4 2.2v0.8l51.7 0.7z"/>
			<path class="s5" d="m46.3 415v-3.8c0 0-3 0-3.8 0-0.9 0-2.6-2.1-2.6-2.1l-2 2.9 1.5 4.1c0 0 2-0.9 2.7-1 0.7 0 4.2-0.1 4.2-0.1z"/>
			<path class="s8" d="m98 404l-9.5-11.2c-2.1-2.5-5.9-2.5-8 0.1l-12.8 15.8 3.6 2.7 12.9-11.2c0 0 9.6 14.8 12.4 16.1 2.8 1.3 13.5-0.7 13.5-0.7z"/>
			<path class="s9" d="m110.1 415.6l-5.5-5.3-1.4-0.5-2.2-1.3c0 0 3.2 4 2.2 5.2-1.1 1.3-4.1 2.3-7.3-1.1-3.3-3.4-11.3-15-11.3-15l-14.1 13.2 0.8 0.6 12.9-11.2c0 0 9.6 14.8 12.4 16.1 2.8 1.3 13.5-0.7 13.5-0.7z"/>
			<path class="s5" d="m68.2 409.1l2.8 2-1.4 3.2c0 0-2.8 0.9-4.1 0.6-1.2-0.4-1.8-1.1-1.8-1.1l0.8-0.5c0 0 3.5-3.5 3.7-4.2z"/>
			<path class="s10" d="m36.9 416.1v-15.2c0 0 2.6 2.7 3.2 5.8 0.5 3.1 0.5 3.1 0.5 3.1 0 0-1.2 1.8-1.2 3.4 0 1.6 0 2.9 0 2.9z"/>
			<path class="s10" d="m70.3 416.7h-15.2c0 0 2.7-2.5 5.8-3.1 3.1-0.6 3.1-0.6 3.1-0.6 0 0 1.8 1.3 3.4 1.3 1.6 0 2.9 0 2.9 0z"/>
			<path class="s2" d="m232.1 286.5c0 0-1-7.9-0.9-10.7 0.1-2.8 0.5-3.4 0.5-3.4 0 0-1.3-2.4-1.1-3.9 0.1-1.4 7 1.1 10.3 0.9 3.2-0.2 6.6 0.5 8.6 2.3 2 1.8 0.3 9.4 0 11.9-0.3 2.5-2.6 5.8-2.6 5.8z"/>
			<path class="s11" d="m379.1 288.9c0 0-4.1-7-3.9-8.7 0.1-1.8 1-2.9 1-2.9 0 0-1.3-0.2-1-2.4 0.3-2.3 1.9-2.5 1.9-2.5 0 0-0.6-2.7 1.5-3.4 2.1-0.7 3.6 0.4 3.6 0.4 0 0 1.5-3.3 4.9-3 3.5 0.4 4.8 1.8 4.8 1.8 0 0 2.2-0.6 3.5 1.5 1.3 2.2 1.2 2.8 1.2 2.8 0 0 1.6 0.2 1.9 2.4 0.3 2.2-0.7 3.8-0.7 3.8 0 0 1.1 1.3-0.2 3.3-1.4 2.1-3.8 6.6-3.8 6.6z"/>
			<path class="s5" d="m404.4 336.1l-2.3 4.6-0.2 5.4c0 0 0.6 2.4 1.7 2.8 1.1 0.3 3.2 0.4 3.2 0.4 0 0 0-0.4-0.5-0.8-0.7-0.5-1.7-0.7-1.7-0.7 0 0-0.9-1.4-0.9-1.7 0-1.2 2-2.7 2-2.7l0.9 2.2c0 0 0.2 0.7 0.5 0.1 0.4-0.7 0.4-2.8 0.5-3.7 0.1-0.8-0.7-2.4-0.7-2.4l0.9-1.3z"/>
			<path class="s7" d="m374.5 347.8l5 36.3 26.1 21.3 3.3-5.8-19.3-20.8-0.5-29.7z"/>
			<path class="s7" d="m402.1 346.6l-2.7 62.5h-6.8l-3.5-60z"/>
			<path class="s12" d="m389.1 349.1l-14.6-1.3 0.4 2.6c3.4 1.3 8.5 2.7 14.3 2.9z"/>
			<path class="s12" d="m401.9 351.8l0.2-5.2-13 2.5 0.3 4.2c2.1 0 4.3 0 6.6-0.4 2.2-0.4 4.2-0.7 5.9-1.1z"/>
			<path class="s13" d="m423.2 311.8l-23.1-17.2c0 0-4.4-3.4-9.9-4.6-7.3-1.6-10.6-0.7-12.9 0.4-2.6 1.3-6.4 3.5-6.4 3.5l-17.9 13.2 5.6 4.5 13-4.2 0.6 40c0 0 9 1.9 16.1 1.7 7-0.2 14.6-1.9 14.6-3.4 0-1-2-10.4-3.7-25.2l0.5-12.2 14.3 8.2-10 19.3 4.8 3.2 15.1-21.9c1.2-1.7 0.9-4-0.7-5.3z"/>
			<path class="s11" d="m386.4 306.9l0.1-3.6c0-0.3 0.2-0.4 0.4-0.4h4.3c0.2 0 0.4 0.2 0.4 0.4l-0.7 10.3c0 0.3-0.2 0.4-0.4 0.4l-3.9-0.1c-0.3 0-0.4-0.2-0.4-0.4z"/>
			<path class="s14" d="m375.2 347.9c0.1-0.5-0.7-50.3-0.7-50.3l-1.7 5.8c0 0-13 6.4-15.1 7.4l0.9 0.8 13-4.2 0.6 40c0 0 1.2 0.2 3 0.5q0 0 0 0z"/>
			<path class="s15" d="m412.2 96.2c0 0-13.4 13.4-14.4 13.4-0.9 0-16.8-13.7-16.8-13.7 0 0 1.3 14.2 1.8 14.3 0.4 0.1 9.1 5.6 13.5 8.4 1.5 0.9 3.4 0.6 4.5-0.8l16-20.1z"/>
			<path class="s16" d="m398.3 117.1c-1.5-0.1-15.3-12-15.3-12l-0.8 2c0.2 1.8 0.5 3.1 0.6 3.1 0.4 0.1 9.1 5.6 13.5 8.4 1.5 0.9 3.4 0.6 4.5-0.8l2.9-3.7c-2.1 1.5-4.6 3-5.4 3z"/>
			<path class="s4" d="m216.2 360.2l24.5 35.8 7.3-6-17.6-36.9z"/>
			<path class="s17" d="m234.1 341.7l19.5 2.4-31.8 62.8-7.8-2.3z"/>
			<path fill-rule="evenodd" class="s18" d="m355.2 247.7l-27.3 66.3h52.6v51.6h-73.9l-20.6 50h-55.5l20.6-50h-64.8l-20.6 50h-55.6l20.6-50h-37.1v-51.6h58.4l27.3-66.3h-52.6v-51.6h73.9l20.6-50h55.5l-20.6 50h64.8l20.6-50h55.6l-20.6 50h37.1v51.6zm-55.5 0h-64.9l-27.3 66.3h64.8z"/>
			<path fill-rule="evenodd" class="s18" d="m103 77.8l-2.3 5.7h4.5v4.5h-6.4l-1.8 4.3h-4.8l1.8-4.3h-5.6l-1.8 4.3h-4.8l1.8-4.3h-3.3v-4.5h5.1l2.4-5.7h-4.6v-4.5h6.4l1.8-4.4h4.8l-1.8 4.4h5.7l1.8-4.4h4.8l-1.8 4.4h3.2v4.5zm-4.8 0h-5.6l-2.4 5.7h5.6z"/>
			<path fill-rule="evenodd" class="s18" d="m452.6 265.2l-2.3 5.8h4.5v4.4h-6.4l-1.8 4.4h-4.8l1.8-4.4h-5.6l-1.8 4.4h-4.8l1.8-4.4h-3.2v-4.4h5l2.4-5.8h-4.6v-4.5h6.4l1.8-4.3h4.8l-1.8 4.3h5.7l1.8-4.3h4.8l-1.8 4.3h3.2v4.5zm-4.8 0h-5.6l-2.4 5.8h5.6z"/>
			<path fill-rule="evenodd" class="s18" d="m66.1 302.7l-2.4 5.8h4.6v4.5h-6.4l-1.8 4.3h-4.8l1.7-4.3h-5.6l-1.8 4.3h-4.8l1.8-4.3h-3.2v-4.5h5l2.4-5.8h-4.5v-4.4h6.4l1.8-4.4h4.8l-1.8 4.4h5.6l1.8-4.4h4.8l-1.8 4.4h3.2v4.4zm-4.8 0h-5.6l-2.4 5.8h5.7z"/>
			<path fill-rule="evenodd" class="s18" d="m99.8 206l-1.5 3.6h2.8v2.8h-4l-1.1 2.8h-3l1.1-2.8h-3.6l-1.1 2.8h-3l1.1-2.8h-2v-2.8h3.2l1.5-3.6h-2.9v-2.8h4l1.2-2.7h3l-1.1 2.7h3.5l1.1-2.7h3l-1.1 2.7h2.1v2.8zm-3.1 0h-3.5l-1.5 3.6h3.5z"/>
			<path fill-rule="evenodd" class="s18" d="m304.3 108.2l-1.4 3.6h2.8v2.8h-4l-1.1 2.8h-3.1l1.2-2.8h-3.6l-1.1 2.8h-3l1.1-2.8h-2v-2.8h3.2l1.4-3.6h-2.8v-2.8h4l1.1-2.8h3.1l-1.2 2.8h3.6l1.1-2.8h3l-1.1 2.8h2v2.8zm-3 0h-3.5l-1.5 3.6h3.5z"/>
			<path fill-rule="evenodd" class="s18" d="m463.3 370.2l-1.5 3.6h2.8v2.9h-4l-1.1 2.7h-3l1.1-2.7h-3.6l-1.1 2.7h-3l1.1-2.7h-2v-2.9h3.2l1.5-3.6h-2.9v-2.8h4l1.1-2.7h3.1l-1.1 2.7h3.5l1.1-2.7h3l-1.1 2.7h2v2.8zm-3 0h-3.5l-1.5 3.6h3.5z"/>
			<path fill-rule="evenodd" class="s18" d="m302.2 166.9l-0.9 2.2h1.8v1.8h-2.6l-0.7 1.7h-1.9l0.7-1.7h-2.2l-0.7 1.7h-1.9l0.7-1.7h-1.3v-1.8h2l1-2.2h-1.9v-1.8h2.6l0.7-1.7h1.9l-0.7 1.7h2.2l0.7-1.7h1.9l-0.7 1.7h1.3v1.8zm-1.9 0h-2.2l-1 2.2h2.2z"/>
			<path fill-rule="evenodd" class="s18" d="m131.2 281.4l-0.9 2.3h1.8v1.8h-2.5l-0.7 1.7h-1.9l0.7-1.7h-2.3l-0.7 1.7h-1.9l0.7-1.7h-1.2v-1.8h2l0.9-2.3h-1.8v-1.7h2.5l0.7-1.7h1.9l-0.7 1.7h2.3l0.7-1.7h1.9l-0.7 1.7h1.2v1.7zm-1.9 0h-2.2l-0.9 2.3h2.2z"/>
			<path fill-rule="evenodd" class="s18" d="m136.7 147l-0.9 2.3h1.8v1.8h-2.5l-0.7 1.7h-1.9l0.7-1.7h-2.3l-0.7 1.7h-1.9l0.7-1.7h-1.2v-1.8h2l0.9-2.3h-1.8v-1.8l2.5 0.1 0.7-1.8h1.9l-0.7 1.8h2.3l0.7-1.8h1.9l-0.7 1.8h1.2v1.7zm-1.9 0h-2.2l-0.9 2.3h2.2z"/>
			<path fill-rule="evenodd" class="s18" d="m459.5 104l-0.9 2.3h1.8v1.7h-2.6l-0.7 1.7h-1.9l0.7-1.7h-2.2l-0.7 1.7h-1.9l0.7-1.7h-1.3v-1.7h2l1-2.3h-1.8v-1.8h2.5l0.7-1.7h1.9l-0.7 1.7h2.2l0.7-1.7h1.9l-0.7 1.7h1.3v1.8zm-1.9 0h-2.2l-1 2.3h2.3z"/>
			<path class="s19" d="m353.1 314c0 0 1.5 2.6 3.6 3.8 2.1 1.2 18.1 3.5 20.2 4.5 0.7 0.3 2.1 1.2 3.6 2.2v-10.5h-16.3z"/>
			<path class="s19" d="m351.2 147.7l28.1 0.2 12.3 3.9-5.5 12.9 0.8 6 10.2-24.6h-55.6l-2.8 7c0.7-0.1 2.7-0.4 5.7-2.1 3.8-2.2 6.8-3.3 6.8-3.3z"/>
			<path class="s19" d="m197.1 318.6c3.9 0.4 20.5-2.3 20.5-2.3 0 0 1.5 1.9 2.6 2.2 1.2 0.3 3.9-0.2 9.4-0.4 5.4-0.3 35.5-4 35.5-4l-0.1-0.1h-57.5l2.4-5.8c-1.7 0.3-3 0.5-3.7 0.7-5.9 1.6-13.1 9.3-9.1 9.7z"/>
			<g>
				<path class="s19" d="m194.8 196.1h-48.1c-1.4 3.4-4.4 13-6.8 21.6-2.1 7.4-7.2 15.6-13.2 20.4v6.7l14.5-4.9 15.3-36.8 11.1 44.6h9.2c4.1-3.6-0.6-12.3-0.6-12.3 0 0-0.2-22.9 0-24.7 0.2-1.8 18.6-14.6 18.6-14.6z"/>
				<path class="s19" d="m210 173.2c5.9-9.7 22.8-25.6 24.3-27.1h-13.1z"/>
			</g>
			<path class="s12" d="m176 181.1l-27.8 8.2-10 39.6 7.1 1.8 13.1-29.6 31.3-14.8z"/>
			<path class="s7" d="m175.7 181.6l0.5-0.4-0.2-0.1-27.8 8.2-10 39.6 1.6 0.4 10.8-36.8z"/>
			<path class="s7" d="m200.1 185.4c0 0 1.1 8.1-4.5 10.4-5.5 2.3-23.3 9.7-23.3 9.7l5.7 29.2-7.8 2.8-14.8-38.3 29.8-18.1z"/>
			<path class="s20" d="m224.6 314h29.8q0.2-1.2 0.3-2.5c0.1-7.7-0.6-20.6-0.6-20.6-8.9-3.6-20.5-0.9-20.5-0.9 0 0-5 2.8-7.8 4.6-2.8 1.8-21.4 14.7-21.4 14.7l3.6 8.1 17.1-7q-0.3 2-0.5 3.6z"/>
			<path class="s11" d="m231.8 301.8l0.1-3.6c0-0.2 0.2-0.4 0.4-0.4h4.3c0.2 0 0.4 0.2 0.4 0.5l-0.7 10.3c0 0.2-0.2 0.4-0.4 0.4l-3.9-0.1c-0.3-0.1-0.5-0.2-0.4-0.5z"/>
			<path class="s21" d="m227.1 297.6v9.2l-17.7 4.4z"/>
			<path class="s1" d="m111.2 376.5c0 0-5.3 0.7-7.8-1.7-2.6-2.5-0.5-4.2-1.8-5.7-1.3-1.5-4.4-1.8-6.6-7-2.2-5.2 0.7-12.4 5.4-15 6.3-3.5 9.7-1.9 12.7 0.4 0 0 2.8-0.4 4.6 2.3 1.9 2.7 0.6 7.3 2.8 11.4 2.3 4.2 7.3 12.6-9.3 15.3z"/>
			<path class="s5" d="m109.7 366.3c-3-2.9-3.3-10.4-3.3-10.4-1.7 2.5-5.6 2.3-7.7 2 0.3 1.1 0.6 2.2 0.6 2.3 0.2 0.4 0 5.4 1.1 5.4 1.1 0 1.1 0 1.1 0 0 0 1.8 4.2 3.7 4.3 2 0 3.3-0.6 3.3-0.6l0.7 5.4 7.5-1.3c0 0-0.7-1.7-1.3-3.5-1.8-0.8-4.1-2-5.7-3.6z"/>
			<path class="s11" d="m102 361c0.2 0.5 0.1 0.9-0.2 1-0.2 0-0.5-0.3-0.6-0.8-0.2-0.5-0.1-1 0.2-1 0.2-0.1 0.5 0.3 0.6 0.8z"/>
			<path class="s1" d="m100.5 359.8c0 0.1-0.1-1.4 1.1-1.4 1.2-0.1 2.8 1 2.6 0.7-0.1-0.3-1.9-1.2-2.7-1.2-0.9 0-1.4 1.1-1 1.9z"/>
			<path class="s22" d="m103.9 363.3c0 0.3-0.4 0.6-1.1 0.7-0.6 0.1-1.2 0-1.2-0.3-0.1-0.2 0.4-0.6 1-0.7 0.7-0.1 1.2 0 1.3 0.3z"/>
			<path class="s17" d="m102 366.6c0 0 1.5 0.1 2.5-0.5 0 0-0.3 1.1-1.1 1.4-0.7 0.3-0.8 0.2-0.8 0.2z"/>
			<path class="s10" d="m110.6 370.5c0 0 3.8-1.8 4.8-0.8 1 1.1 6 3.3 6 15.3 0 4-6.2 28.3-11.3 30.6 0 0-10-4.8-12.1-11.6 0 0 4.9-3.1 6-8 0.8-3.5-5.2-12.9 2.8-21.5 1.4-1.5 3.8-4 3.8-4z"/>
			<path class="s20" d="m204.4 309.3l21.2-5.9 1.5 5.6-18.5 8.4c-7 2.3-9.4-1.4-4.2-8.1z"/>
			<path class="s17" d="m417.3 129.4l-29.2 1.2-11.3 9.6c0 0-1.2 5.7 3.6 6.1 14.9 1.1 24-3 24-3l-11.5 17.9 3.2 3.5c7.8-7.2 12.8-12.2 24-24.5 5.1-5.6 2.9-11-2.8-10.8z"/>
			<path class="s15" d="m376.7 143.1l16.3-12.7c0 0-5-5.1-6.3-6.6-1.2-1.5-1.9-7.4-1.9-8.6 0.1-1.3 4.6-6.4 3.7-9.3-0.8-2.9-8-11.1-10.1-12.1-2.1-1-8.9 0-8.9 0 0 0-4.8 8.2-4.4 18.8 0.4 10.5 6.8 25.1 11.6 30.5z"/>
			<path class="s16" d="m381.2 139.6c-3.6-5.6-7.4-19.7-7.4-20.5 0-0.9 4.6-5 4.6-5 0 0-0.6 0.2-4.8-1.2-4.3-1.4-1.4-11.3-1.4-11.3l-6.4 2.3c-0.5 2.6-0.8 5.5-0.7 8.6 0.4 10.6 6.8 25.2 11.6 30.6z"/>
			<path class="s5" d="m374.8 94c0 0 2.5 2.4 3.9 2.6 1.4 0.2 1.8-0.7 1.8-0.7l-0.2-1.9 0.7-4.8-5.7-4-2.3 7c0 0 1.2 1.3 1.8 1.8z"/>
			<path class="s23" d="m373 92.2c0 0 0.5 0.5 1 1 1-1.5 2-2.9 2-2.9 0.9 0.9 2.9 1.7 4.5 2.2l0.5-3.3-5.7-4z"/>
			<path class="s15" d="m370.4 92.2c1.4-1.2 7.6-0.6 5.5 4.6-1.5 3.6-4.6 9.3-8.4 16-2.9 5.1-16.2 24.9-16.2 24.9l-4.9-2.4c0 0 20.1-39.9 24-43.1z"/>
			<path class="s5" d="m214.6 404.8c0 0-1.6 3.4-2 4.1-0.5 0.8-9.3 3.8-8.8 6.7 0.2 0.8 13.4-0.1 14.1-0.2 0.7-0.2 3.4-8.5 3.4-8.5z"/>
			<path class="s7" d="m216.6 411.1c-1.7-1.5-4.4-1.9-4.4-1.9-1.8 1.1-8.8 3.8-8.4 6.4 0.2 0.8 13.4-0.1 14.1-0.2 0.4-0.1 1.2-2.3 2-4.4-1.1 0.5-2.4 0.8-3.3 0.1z"/>
			<path class="s13" d="m356.4 305.6c-2.5-0.1-4.5 1.9-4.5 4.3v1.2c0 2.5 2.3 4.5 4.8 4.2l24.8-3.2v-5.3z"/>
			<path class="s24" d="m216.1 132.9c0 0 6.5 7.7 4 17.3-2.4 9.5-20.3 42.3-20.3 42.3 0 0-18.1-4.4-24.6-11.5 0 0 13-18.4 15.8-26.4 2.9-8.1 7.6-16.5 9.4-18.4 2.7-2.9 9.2-6.5 15.7-3.3z"/>
			<path class="s11" d="m185.7 147.8l-1.2-3.4c-0.1-0.2 0-0.4 0.2-0.5l4-1.5c0.2-0.1 0.4 0 0.5 0.2l3.1 9.9c0.1 0.2 0 0.5-0.2 0.5l-3.7 1.3c-0.3 0.1-0.5 0-0.6-0.2z"/>
			<path class="s11" d="m422.2 87.2l0.2-3.6c0-0.3 0.2-0.4 0.5-0.4l4.2 0.2c0.3 0 0.4 0.3 0.4 0.5l-1.3 10.3c0 0.2-0.2 0.4-0.4 0.3l-3.9-0.3c-0.2 0-0.4-0.2-0.4-0.5z"/>
			<path class="s5" d="m212.3 129.9v0.2l0.4 1.9c0 0-3 3.5-5.6 3.8-2.5 0.2-2.9-0.1-3-0.6-0.1-0.6-0.3-2.7-0.3-2.7z"/>
			<path class="s23" d="m208 134.5c1.9-0.6 3.6-2 4.6-3l-0.3-1.4v-0.2l-8.5 2.6c0 0 0.2 1.6 0.3 2.3 1.2 0.2 2.5 0.1 3.9-0.3z"/>
			<path class="s3" d="m199.8 192.5c0 0 17.9-32.8 20.3-42.3 1.1-4.1 0.5-7.8-0.5-10.7q-0.1-0.1-0.2-0.1c-4.5-1.5-6.8-5.4-6.8-5.4-1.3 2.2 0.7 6.2 0.7 6.2l0.6 1.9c0 0-4.7 14.6-4.8 17.1 0 2.1-8.6 25.4-11.3 32.8 1.3 0.3 2 0.5 2 0.5z"/>
			<path class="s5" d="m198 112.3l0.4 14c0.1 4.2 3.6 7.4 7.7 7.3 3.7-0.1 6.8-3 7.2-6.7l1.4-13.7z"/>
			<path class="s24" d="m213.8 132.1c0 0-2.5 2.5 0.9 9.5 1.4 3 15.4 3.9 15.4 3.9l5.5-0.4c0 0 4-8.8-1.9-10.7-4.8-1.5-17.2-2.7-19.9-2.3z"/>
			<path class="s3" d="m223.5 137.2c-3.4-1.2-9.7-1.6-10.5-2.7-0.2 1.5 0.1 3.8 1.7 7.1 1.3 2.9 14.7 3.9 15.3 3.9l4.1-6.8c0 0-6 0-10.6-1.5z"/>
			<path class="s24" d="m237.1 138.8c-1-3.2-4.3-5-7.5-4.2l-34.6 9 1.6 7.6 35.3-4.3c3.9-0.5 6.4-4.4 5.2-8.1z"/>
			<path class="s5" d="m195.3 145.2l1.1 4.8-3.2 0.9c0 0-2.1 1.1-3.5 0.9-1.4-0.3-2.2-3.3-2.3-4-0.1-0.7 0.1-1.4 0.9-1.7 0.9-0.2 2-0.1 2-0.1l-0.4-1.2c0 0 1.5-0.6 2.1-0.1 0.6 0.4 1.5 0.9 1.5 0.9z"/>
			<path class="s5" d="m351.2 137.6l-4.6-2.3-3.3 7.2-3.9 2c-0.3 0.1-0.5 0.4-0.5 0.7l-0.2 6.3c0 0 0.7-0.4 1-1 0.4-0.6 1.2-3.9 1.2-3.9 0 0 2.2-0.2 4-0.6 1.8-0.4 1.7-2.3 1.7-2.3z"/>
			<path class="s5" d="m412.2 96.2l5-5.3c0 0 0.4-2.2 1.7-3.5 1.4-1.2 4.1-2 4.1-2 0 0 0.5 0.8-0.9 2.4l-0.6 5.9-2.4 1.3-2.3 2.7z"/>
			<path class="s5" d="m395.9 164.5c0 0-1.4 2-1.4 3.1 0.1 1.1 0 4.8 0 4.8 0 0-1.5-0.9-2.7-2.4-1.2-1.5-1.4-5.5-1.4-5.5l2.7-3.1z"/>
			<path class="s6" d="m389.1 165.2c0 0 4.2 14.2 4.8 13.9 0.7-0.2 1.6-5.4 1-6.8-0.6-1.3-3.3-3-3.7-4.9-0.5-2-0.6-3.5-0.9-3.4-0.4 0-1.5 0.1-1.2 1.2z"/>
			<path class="s5" d="m234.5 310.3l-1.4-0.5-4 0.5c0 0-3.6 0.6-3.7 0.7-0.1 0-1.9 1.1-2.6 2.1-0.7 0.9-0.8 3.9-0.8 3.9 0 0 0.6 0.8 1.1 0 0.4-0.8 1.1-2.1 1.1-2.1 0 0 2.6 0.2 3.5 0.1 0.9-0.1 1.4-0.9 1.4-0.9l3.9-0.2z"/>
			<path class="s20" d="m254.1 290.9c5.9 2.5 13.1 14.6 13.9 16.2 0.8 1.5 1.1 6.2-2.9 7-4 0.8-32.7 0-32.7 0l0.8-4.9 20.4-2.6-4.8-4.4c0 0 2.5-12.6 5.3-11.3z"/>
			<path class="s5" d="m225.8 304l3.3-1.1c0 0 0.8-1 1.2-1.3 0.3-0.3 1.6-0.5 1.6-0.5v1.3c0 0 4.5-0.3 4.7-0.3 0.7 0.2 0.5 3.9-0.3 4.8-0.3 0.4-2.4 0.7-3.1 0.8-0.7 0.1-2.6-0.6-2.7-0.6 0 0-3.5 1.5-3.5 1.5z"/>
			<path class="s5" d="m381.5 307.2l2.4-0.1c0 0 0.9-0.8 1.2-1 0.3-0.2 1.4-0.4 1.4-0.4l-0.1 1.2c0 0 4 0 4.1 0.1 0.6 0.2 0.2 3.4-0.5 4.1-0.3 0.3-2.2 0.5-2.8 0.5-0.6 0-2.3-0.4-2.3-0.4-0.1 0-3.4 0.4-3.4 0.4z"/>
			<path class="s5" d="m393.5 281.1c0 0 0 0-0.6 0.5-0.6 0.4-1.4-0.1-1.4-0.1 0 0-1 1.2-2.4 1.2-1.4 0.1-2.6-1.3-2.6-1.3 0 0-0.4 0.5-1.8 0.5-1.4-0.1-4-2.3-4-2.3 0 0 0 0-0.2 1.3-0.1 1.2-1.5 4.9-1.5 4.9l0.1 3.9c0.1 4.1 3.6 7.3 7.7 7.2 3.7-0.1 6.8-2.9 7.2-6.7l0.3-3.6c-1.3-1.5-0.8-5.5-0.8-5.5z"/>
			<path class="s23" d="m386.9 288.7c0 0-0.2 2.4 1.1 3.3 0.4 0.3-0.2 1-1.4 0.8-0.3 0 1.7-0.4 0.5-1.2-0.6-0.5-0.5-2.6-0.2-2.9z"/>
			<path class="s2" d="m384.8 289.7c0 0.5-0.4 0.9-0.7 0.9-0.4 0-0.7-0.4-0.7-0.9 0-0.5 0.3-0.9 0.7-0.9 0.3 0 0.7 0.4 0.7 0.9z"/>
			<path class="s2" d="m390.4 289.7c0 0.5-0.4 0.9-0.8 0.9-0.3 0-0.7-0.4-0.7-0.9 0-0.5 0.4-0.9 0.7-0.9 0.4 0 0.8 0.4 0.8 0.9z"/>
			<path class="s11" d="m380.8 287.5c0 0 0.9-1.4 2.8-1 1.8 0.3 2.1 0.3 2.1 0.3 0 0-1.3-1-2.6-1-1.3-0.1-2.2 0.9-2.3 1.7z"/>
			<path class="s11" d="m392.3 287.5c0 0-0.9-1.4-2.7-1-1.8 0.3-2.1 0.3-2.1 0.3 0 0 1.3-1 2.6-1 1.3-0.1 2.2 0.9 2.2 1.7z"/>
			<path class="s17" d="m385.7 294c0 0 1.9 0.1 2.8-0.2 0.9-0.2-0.9 0.9-1.7 0.7-0.9-0.2-1.4-0.5-1.1-0.5z"/>
			<path class="s5" d="m394.3 286.6c0 0 1.9-2.2 2.7-0.8 1.6 2.5-1.8 4.2-3 4.4z"/>
			<path class="s5" d="m379 285.8c0 0-1-1.8-2.3-0.3-1.3 1.5 1.2 4.2 2.4 4.2z"/>
			<path class="s5" d="m246.3 283.6v2.7l-0.8-2.7c0.1 0-0.3-0.6-1.2-2-0.9-1.4-0.1-4-0.1-4 0 0-2.1 1.6-6.1 1-3.9-0.6-4.6-2.5-4.6-2.5 0 0-0.9 0.6-1.1 1-0.4 0.8-0.4 3.8-0.4 3.8l0.2 7.3c0.1 4.1 3.5 7.4 7.6 7.2 3.8-0.1 6.8-2.9 7.2-6.6l0.6-5.2z"/>
			<path class="s16" d="m368.9 94c-6 8.5-22.5 41.3-22.5 41.3l0.9 0.4 23.1-43.5z"/>
			<path class="s3" d="m236.8 143.3q-0.9 0.4-2 0.8c-3.5 1.2-38.8 4.2-38.8 4.2l0.6 2.9 35.3-4.3c2.3-0.3 4-1.7 4.9-3.6z"/>
			<path class="s25" d="m112.6 376.2c0 0 1.7 17.2 0.7 22-1 4.9-6.5 14.8-6.5 14.8l0.4 1c1.7 1 2.9 1.6 2.9 1.6 5.1-2.3 11.3-26.6 11.3-30.6 0-6.3-1.4-9.9-2.8-12.1l-0.4-0.1z"/>
			<path class="s10" d="m114.6 369.7c-3.6-1.7-16.6 17-16.6 17l-11.7-10.4-3.6 3.7 12.3 13.6c1.7 1.8 4.5 2 6.3 0.3 5.3-5.1 15.6-15 16.4-16.9 2.6-6-3.1-7.3-3.1-7.3z"/>
			<path class="s25" d="m117.9 372c0 0-0.5 2.9-3.2 6.1-2.7 3.2-14.3 15.1-15.7 15.6-2.8 1.1-9.1-5.8-9.1-5.8l5.1 5.7c1.7 1.8 4.5 2 6.3 0.3 5.3-5.1 15.6-15 16.4-16.9 1-2.3 0.8-3.9 0.2-5z"/>
			<path class="s7" d="m390.7 415.6c0 0 7.4 0 7.7 0 1.2 0 1.2-3.1 0.8-3.4-0.3-0.4-2.6-1.9-6.5-0.4-1.7 0.7-3.5 3.2-2 3.8z"/>
			<g>
				<path class="s14" d="m399.2 320.7z"/>
				<path class="s14" d="m400.6 304.8l-2.3-4.9 0.9 20.4 0.5-12 14.3 8.2 1.3-2.2z"/>
				<path class="s14" d="m408.8 339l15.1-21.9q0.5-0.7 0.6-1.5l-18.1 21.8z"/>
			</g>
			<path class="s12" d="m391.8 394.1l8 6.6-0.2 2.6-7.6-5z"/>
			<path class="s5" d="m246.3 283.6c0 0 2.4-3.6 3.2-1.9 1.5 3-1.7 5.3-2.3 5.6-0.6 0.2-0.9-0.8-0.9-0.8 0 0 0-2.9 0-2.9z"/>
			<path class="s21" d="m249.1 299.6l7.4 6.8-2.9 0.4-5.1-4.6c0 0 0-1.3 0.6-2.6z"/>
			<path class="s21" d="m264.1 312.8c-2.9 0.7-25.3 0.2-31.5 0l-0.2 1.3c0 0 28.7 0.8 32.7 0 2-0.4 2.9-1.8 3.2-3.3-1.1 0.8-2.5 1.5-4.2 2z"/>
			<path class="s21" d="m205.7 316.4c-1.3 0.2-2.8 0.1-3.9-0.1 0.5 1.8 2.9 2.3 6.8 1.1l18.5-8.4-0.4-1.5c0 0-18.7 8.5-21 8.9z"/>
			<path class="s11" d="m198.2 120.5c0 0-1.2-2.8-2.2-5.4-1-2.6 1.4-3.9 1.4-3.9 0 0 0-2.6 2.7-3.6 2.7-1.1 5.1 1.1 5.1 1.1 0 0 4-0.2 8.2 1.6 4.3 1.9 3.2 6.2 3 10.4-0.3 7.2-4.1 9-4.1 9l-0.8-5.3c0 0-0.4-2.8-0.6-3.3-0.3-0.5-1.9-2.3-2.2-4.6 0 0-6.3 2.1-9.8-0.1 0 0-0.7 2.3-0.7 4.1z"/>
			<path class="s5" d="m211.5 124.6c0 0 0.8-3.5 1.4-3.8 0.7-0.2 1.9-0.2 1.8 1.3 0 1.5-1.3 4-2.9 4.5-0.7 0.2-0.3-2-0.3-2z"/>
			<path class="s5" d="m177.3 235c0 0 0.9 4.4 1.4 5.6 0.5 1.2 1.3 7.5-1.7 7.9-2.9 0.4-4.3-0.8-4.7-2.7-0.4-1.9 0.1-4.4-0.1-5.5-0.2-1.2-1.1-3.1-1.1-3.1z"/>
			<path class="s7" d="m172.2 241.6c0 0 2.4 0.9 4 0 1.5-0.8 2.2-1.7 2.2-1.7 0 0 0.2-0.1 0.8 2.3 0.6 2.3 0.2 5.9-0.7 6.8-1.4 1.3-3.1 1.4-4.3 1-1.1-0.3-2.3-2.4-2.3-4 0-1.5 0.3-4.4 0.3-4.4z"/>
			<path class="s5" d="m144.6 230.5c0 0-1.2 5.5-2.1 6-0.9 0.4-10.9 2.5-11.8 1.6-0.9-0.9 2.8-3.6 3.9-3.9 2.7-0.6 4.2-5.2 4.2-5.2z"/>
			<path class="s7" d="m136.3 233.7c0 0 1.6 1.3 3.4 1.1 1.8-0.1 4.2-1.3 4.2-1.3 0 0 0.7 2 0 2.6-0.7 0.7-14.4 4.8-15.7 4.4-1.3-0.5 0.7-2.9 2.1-4.3 1.4-1.3 5.6-3.4 6-2.5z"/>
			<path class="s5" d="m390.6 77.3c-2.9 1.8-10.8-3.9-10.8-3.9 0.1 3.3-3.3 9.4-4.7 11.8 0.5 3.7 3.7 6.6 7.5 6.4 3.8-0.1 6.8-2.9 7.2-6.6z"/>
			<path class="s11" d="m389.6 81.2c-0.1 0.7-0.5 1.1-0.8 1.1-0.3-0.1-0.4-0.7-0.3-1.3 0.2-0.7 0.6-1.1 0.9-1 0.3 0 0.4 0.6 0.2 1.2z"/>
			<path class="s11" d="m382.8 80.7c-0.1 0.6-0.4 1.1-0.7 1.1-0.3 0-0.5-0.5-0.5-1.2 0.1-0.7 0.3-1.2 0.6-1.2 0.4 0.1 0.6 0.6 0.5 1.3z"/>
			<path class="s22" d="m390.2 84.5c-0.1 0.3-0.7 0.5-1.5 0.4-0.8-0.1-1.5-0.4-1.4-0.7 0-0.4 0.7-0.6 1.5-0.5 0.8 0.1 1.4 0.4 1.4 0.8z"/>
			<path class="s22" d="m382.2 83.2c-0.1 0.3-0.7 0.5-1.5 0.5-0.8-0.1-1.4-0.5-1.4-0.8 0-0.3 0.7-0.5 1.5-0.5 0.8 0.1 1.4 0.5 1.4 0.8z"/>
			<path class="s2" d="m387 79.2c0 0 1.2-1.5 2.5-0.8 1.2 0.6 1.9 1.1 1.9 1.1l-0.6-1c0 0-0.8-0.7-1.7-0.8-1-0.2-2.2 0.7-2.1 1.5z"/>
			<path class="s2" d="m384.1 77.8c-0.1 0-0.4-1.6-2.3-1.5-1.8 0.1-2.8 1.3-2.8 1.3 0 0 2.3-1 3.4-0.6 1.1 0.4 1.6 0.8 1.6 0.8z"/>
			<path class="s23" d="m385.9 81.4c0 0-0.2 2.6 0.6 3.1 0.9 0.4-0.2 1.4-0.7 1.5-0.4 0-0.4 0-0.4 0 0 0 1.1-0.7 0.9-1-0.3-0.4-0.8-0.7-0.7-1.6 0.1-0.9 0.3-2 0.3-2z"/>
			<path class="s17" d="m383.4 87.4c0 0 1.6 0.9 2.6 0.6 1-0.3-0.4 1.1-1.2 0.7-0.8-0.4-1.9-1.3-1.4-1.3z"/>
			<path class="s11" d="m199.6 123.3c0.2 0.6 0.5 1.1 0.8 1.1 0.2-0.1 0.4-0.7 0.3-1.3-0.1-0.7-0.5-1.1-0.8-1.1-0.2 0.1-0.4 0.7-0.3 1.3z"/>
			<path class="s11" d="m206 123c0 0.6 0.2 1.2 0.5 1.2 0.3 0 0.5-0.6 0.5-1.2 0-0.7-0.2-1.2-0.5-1.2-0.3 0-0.5 0.5-0.5 1.2z"/>
			<path class="s2" d="m202.1 121.3c0 0-1-1.5-2.2-0.8-1.2 0.6-1.6 0.9-1.6 0.9v-0.6c0 0 1.1-0.9 2-1 0.9-0.2 2 0.8 1.8 1.5z"/>
			<path class="s2" d="m204.9 120.1c0 0 0.4-1.6 2.1-1.4 1.7 0.1 2.5 1.4 2.5 1.4 0 0-2-1.2-3.1-0.8-1 0.4-1.5 0.8-1.5 0.8z"/>
			<path class="s23" d="m203.1 123.7c0 0 0 2.6-0.7 2.9-0.8 0.4 0.1 1.5 0.5 1.6 0.5 0 0.5 0 0.5 0 0 0-1-0.7-0.8-1 0.2-0.3 0.7-0.7 0.7-1.6 0-0.9-0.2-1.9-0.2-1.9z"/>
			<path class="s17" d="m205.1 129.7c0 0-1.5 0.9-2.4 0.5-0.9-0.4 0.4 1.1 1.1 0.8 0.8-0.4 1.8-1.3 1.3-1.3z"/>
			<path class="s11" d="m234.6 285.3c0.1 0.6 0.5 1.1 0.7 1 0.3 0 0.5-0.6 0.3-1.3-0.1-0.6-0.4-1.1-0.7-1-0.3 0.1-0.4 0.6-0.3 1.3z"/>
			<path class="s11" d="m240.3 285.2c0 0.6 0.2 1.1 0.5 1.1 0.3 0 0.5-0.5 0.5-1.1 0-0.7-0.2-1.2-0.5-1.2-0.3 0-0.5 0.5-0.5 1.2z"/>
			<path class="s2" d="m239.5 281.9c0 0 0.4-1.6 2.1-1.4 1.6 0.2 2.5 1.4 2.5 1.4 0 0-2.1-1.1-3.1-0.8-1 0.4-1.5 0.8-1.5 0.8z"/>
			<path class="s23" d="m238.2 285.2c0 0 0 2.6-0.8 2.9-0.7 0.4 0.2 1.5 0.6 1.6 0.5 0 0.5 0 0.5 0 0 0-1.1-0.7-0.8-1 0.2-0.3 0.7-0.7 0.7-1.6-0.1-0.9-0.2-1.9-0.2-1.9z"/>
			<path class="s17" d="m237 292.8c0 0 1.5-0.9 2.4-0.5 0.9 0.4-0.3-1.1-1.1-0.7-0.7 0.3-1.8 1.2-1.3 1.2z"/>
			<path class="s5" d=""/>
			<path class="s5" d="m86.6 377.3l-2.3-2.2c0 0-0.4-1.3-1-2.3-0.7-1.1-4.5-3.2-4.5-3.2 0 0 0 0.6 0.4 1.2 0.3 0.6 1.1 1.6 1.1 1.6 0 0 0.6 1-0.3 0.1-0.9-0.9-2.2-2.4-2.2-2.4 0 0-1 0.6-1 1.5 0 0.8 0.8 2.6 1.3 3.7 0.5 1.2 4.3 2.6 4.3 2.6l2.5 3.2z"/>
			<path class="s2" d="m232 282.6c0 0 1.2-1.5 2.6-1 1.4 0.5 1.3 0.5 1.3 0.5 0 0-0.1-1.1-1.7-1.2-1.6-0.2-2.2 1.7-2.2 1.7z"/>
		</g>
	</g>
</svg>