<svg version="1.2" xmlns="http://www.w3.org/2000/svg" viewBox="0 0 500 500" width="500" height="500">
	<title>5911276_2992775-svg</title>
	<style>
		.s0 { fill: #f5f5f5 } 
		.s1 { fill: #e0e0e0 } 
		.s2 { fill: #ebebeb } 
		.s3 { fill: #263238 } 
	</style>
	<g id="Background_Complete">
		<g>
			<path class="s0" d="m76 227.1v39.8c0 7.3 6.5 13.1 14.5 13.1h158.3c8 0 14.5-5.8 14.5-13.1v-33.7l19.7-18.7-192.5-0.5c-8 0-14.5 5.8-14.5 13.1z"/>
			<g>
				<path class="s1" d="m239.9 238.2l-143.6-0.6v-4l143.7 0.6z"/>
			</g>
			<g>
				<path class="s1" d="m239.9 251.3l-143.6-0.6v-4l143.7 0.6z"/>
			</g>
			<g>
				<path class="s1" d="m183.1 263.8v-4l56.9 0.3-0.1 4z"/>
			</g>
		</g>
		<g>
			<g>
			</g>
			<g>
			</g>
			<g>
			</g>
		</g>
		<path class="s0" d="m258.6 117.4h100.8c5 0 9 4 9 9v49.3c0 5-4 9-9 9h-85.5c-5 0-9-4-9-9v-52.1z"/>
		<g>
			<path class="s1" d="m317 165.3v31.6c0 5.7-4.6 10.3-10.3 10.3h-113.3c-5.7 0-10.4-4.6-10.4-10.3v-26.7l-14.1-14.8 137.7-0.5c5.8 0 10.4 4.7 10.4 10.4z"/>
			<g>
				<path class="s0" d="m199.7 174.1l102.8-0.5v-3.1l-102.8 0.4z"/>
			</g>
			<g>
				<path class="s0" d="m199.7 184.5l102.8-0.5v-3.2l-102.8 0.5z"/>
			</g>
			<g>
			</g>
		</g>
		<g>
			<path class="s1" d="m417.6 238.8v31.6c0 5.7-4.6 10.3-10.3 10.3h-113.3c-5.7 0-10.3-4.6-10.3-10.3v-26.7l-14.1-14.8 137.7-0.4c5.7-0.1 10.3 4.6 10.3 10.3z"/>
			<g>
				<path class="s0" d="m300.4 247.6l102.8-0.5-0.1-3.1-102.8 0.4z"/>
			</g>
			<g>
				<path class="s0" d="m300.4 258l102.8-0.5-0.1-3.1-102.8 0.4z"/>
			</g>
			<g>
				<path class="s0" d="m300.3 265l40.7-0.2v3.1l-40.6 0.2z"/>
			</g>
		</g>
	</g>
	<g id="Background_Simple" style="display: none">
		<path class="s2" d="m422.5 129c28.6 57 19.6 128.9-16.2 181.7-35.7 52.7-95.1 86.9-157.7 99.4-44.6 8.8-92.6 7-133.4-13.2-40.7-20.1-72.8-60.8-75.2-106.2-1-17.2 2.7-35.4 14.1-48.2 18.3-20.5 49.5-21.2 77-20.3 27.4 0.8 58.6 0.2 77-20.2 14.1-15.7 16.2-38.4 23.6-58.1 12.7-33.6 43.2-59.8 78.3-67.2q7.3-1.5 14.7-2c38.6-2.4 75.2 17.5 95.4 50.4z"/>
	</g>
	<g id="Plants">
		<g>
			<g>
				<g>
				</g>
			</g>
			<g>
				<g>
					<g>
						<path class="s3" d="m317.6 412.1c2.3-8.7 5.9-18.8 11-29.5 5.2-10.7 11.7-22 19-33.5q2.8-4.3 5.5-8.6c1.8-2.8 3.5-5.5 5.4-8.1 3.8-5.3 7.9-10 11.8-14.4 4-4.4 7.9-8.4 11.6-12.1 3.8-3.7 7.3-7.1 10.6-10.1 6.7-5.9 12.6-10.1 16.8-12.8 2.1-1.3 3.8-2.3 4.9-3q0.8-0.5 1.3-0.7 0.5-0.3 0.5-0.3 0 0.1-0.4 0.3-0.5 0.3-1.3 0.8c-1.1 0.7-2.8 1.8-4.8 3.1-4.2 2.8-10 7-16.7 13-3.3 3-6.8 6.4-10.5 10.1-3.6 3.7-7.5 7.8-11.5 12.1-3.9 4.4-8 9.2-11.7 14.4-1.9 2.6-3.7 5.3-5.4 8.1q-2.7 4.2-5.5 8.6c-7.3 11.5-13.9 22.7-19 33.4-5.1 10.7-8.8 20.7-11.1 29.4"/>
					</g>
				</g>
			</g>
			<g>
				<g>
					<g>
						<path class="s3" d="m358.7 332.4c0 0 0-0.6-0.1-1.7 0-1 0-2.5 0.1-4.4 0-3.8 0.3-9 0.7-14.7 0.3-5.8 0.5-11 0.6-14.7 0-1.9 0-3.4 0-4.5-0.1-1 0-1.6 0-1.6 0.1 0 0.1 0.6 0.2 1.6 0.1 1.1 0.2 2.6 0.2 4.5 0.1 3.7 0 9-0.3 14.7-0.4 5.7-0.7 10.8-0.9 14.7q-0.2 2.6-0.3 4.4c-0.1 1.1-0.1 1.7-0.2 1.7z"/>
					</g>
				</g>
			</g>
			<g>
				<g>
					<g>
						<path class="s3" d="m407.8 331.3c0 0-0.7 0-2-0.1-1.2-0.1-3-0.2-5.2-0.3-4.4-0.3-10.6-0.4-17.4-0.3-6.7 0.2-12.9 0.6-17.3 1.1-2.2 0.2-4 0.4-5.2 0.5-1.3 0.2-1.9 0.2-2 0.2 0-0.1 0.7-0.2 1.9-0.4 1.3-0.3 3-0.6 5.3-0.8 4.4-0.6 10.5-1.1 17.3-1.2 6.8-0.2 13 0 17.4 0.4 2.2 0.1 4 0.3 5.3 0.5 1.2 0.2 1.9 0.3 1.9 0.4z"/>
					</g>
				</g>
			</g>
			<g>
				<g>
					<g>
						<path class="s3" d="m329.4 381.8q-0.1 0-0.3-0.6-0.2-0.7-0.5-1.8c-0.5-1.7-1-4-1.7-6.9-1.4-5.8-3.1-14-4.9-22.9-1.7-9-3.3-17.1-4.6-23-0.6-2.8-1.1-5.1-1.5-6.9q-0.3-1.1-0.4-1.9-0.2-0.6-0.1-0.6 0 0 0.2 0.6 0.2 0.7 0.5 1.9c0.5 1.6 1.1 3.9 1.8 6.8 1.4 5.9 3.1 14 4.8 22.9 1.7 9 3.4 17.1 4.6 23 0.7 2.8 1.2 5.2 1.6 6.9q0.2 1.1 0.4 1.9 0.1 0.6 0.1 0.6z"/>
					</g>
				</g>
			</g>
			<g>
				<g>
					<g>
						<path class="s3" d="m395.9 371.8q0 0.1-0.7 0.2-0.7 0.1-1.9 0.3c-1.8 0.3-4.2 0.6-7.1 1.1-6 0.9-14.3 2.3-23.5 3.8-9.2 1.5-17.5 2.8-23.5 3.6-3.1 0.4-5.5 0.7-7.2 0.8q-1.2 0.2-1.9 0.2-0.7 0.1-0.7 0 0 0 0.6-0.1 0.8-0.1 2-0.3c1.8-0.3 4.2-0.7 7.1-1.1 6-0.9 14.3-2.3 23.5-3.8 9.2-1.5 17.5-2.8 23.5-3.6 3-0.4 5.5-0.7 7.2-0.9q1.1-0.1 1.9-0.2 0.7 0 0.7 0z"/>
					</g>
				</g>
			</g>
		</g>
		<g>
			<g>
			</g>
			<g>
			</g>
			<g>
			</g>
		</g>
	</g>
	<g id="Device">
		<g>
			<g>
				<g>
					<g>
						<g>
						</g>
						<g>
						</g>
					</g>
				</g>
				<g>
				</g>
				<g>
				</g>
				<g>
				</g>
			</g>
		</g>
		<g>
			<path class="s3" d="m307 52.9c0.2 0 0.3 6.2 0.3 13.9 0 7.7-0.1 13.9-0.3 13.9-0.1 0-0.3-6.2-0.3-13.9 0-7.7 0.2-13.9 0.3-13.9z"/>
		</g>
		<g>
			<path class="s3" d="m356.3 84.9c0.1 0.2-5.6 2.8-12.6 5.9-7 3.1-12.8 5.5-12.8 5.4-0.1-0.2 5.6-2.8 12.6-5.9 7-3.1 12.8-5.5 12.8-5.4z"/>
		</g>
		<g>
			<path class="s3" d="m355.1 36.4q0 0-0.3 0.5-0.3 0.6-0.8 1.5c-0.8 1.2-1.9 3.1-3.3 5.3-2.8 4.5-6.8 10.6-11.4 17.3-4.6 6.6-8.6 12.7-11.5 17.1-1.4 2.2-2.6 4-3.4 5.3q-0.6 0.9-0.9 1.4-0.4 0.5-0.4 0.5 0 0 0.3-0.5 0.3-0.6 0.8-1.5c0.8-1.3 1.9-3.1 3.3-5.4 2.8-4.4 6.8-10.6 11.4-17.2 4.5-6.7 8.6-12.7 11.5-17.2 1.4-2.2 2.5-3.9 3.4-5.2q0.6-0.9 0.9-1.5 0.4-0.4 0.4-0.4z"/>
		</g>
	</g>
	<g id="Speech_Bubbles" style="display: none">
		<g>
			<g>
				<g>
					<path class="s0" d="m331.2 192c0 0.2-26.8 0.3-59.9 0.3-33.1 0-59.9-0.1-59.9-0.3 0-0.1 26.8-0.2 59.9-0.2 33.1 0 59.9 0.1 59.9 0.2z"/>
				</g>
				<g>
					<path class="s0" d="m331.2 181.3c0 0.1-26.8 0.2-59.9 0.2-33.1 0-59.9-0.1-59.9-0.2 0-0.2 26.8-0.3 59.9-0.3 33.1 0 59.9 0.1 59.9 0.3z"/>
				</g>
				<g>
					<path class="s0" d="m331.2 202.7c0 0.1-26.8 0.2-59.9 0.2-33.1 0-59.9-0.1-59.9-0.2 0-0.2 26.8-0.3 59.9-0.3 33.1 0 59.9 0.1 59.9 0.3z"/>
				</g>
				<g>
					<path class="s0" d="m289.9 213.7c0 0.1-17.6 0.2-39.3 0.2-21.7 0-39.2-0.1-39.2-0.2 0-0.2 17.5-0.3 39.2-0.3 21.7 0 39.3 0.1 39.3 0.3z"/>
				</g>
			</g>
		</g>
		<g>
			<g>
				<g>
				</g>
				<g>
				</g>
				<g>
					<path class="s0" d="m313.4 328.6c0 0.1-26.8 0.3-59.9 0.3-33.1 0-59.9-0.2-59.9-0.3 0-0.1 26.8-0.3 59.9-0.3 33.1 0 59.9 0.2 59.9 0.3z"/>
				</g>
				<g>
					<path class="s0" d="m272.1 339.6c0 0.2-17.6 0.3-39.3 0.3-21.6 0-39.2-0.1-39.2-0.3 0-0.1 17.6-0.2 39.2-0.2 21.7 0 39.3 0.1 39.3 0.2z"/>
				</g>
			</g>
		</g>
	</g>
</svg>