<?xml version="1.0" encoding="utf-8"?>
<!-- Generator: Adobe Illustrator 27.5.0, SVG Export Plug-In . SVG Version: 6.00 Build 0)  -->
<svg version="1.1" xmlns="http://www.w3.org/2000/svg" xmlns:xlink="http://www.w3.org/1999/xlink" x="0px" y="0px"
	 viewBox="0 0 750 500" style="enable-background:new 0 0 750 500;" xml:space="preserve">
<g id="Background_Complete">
	<g>
		<g>
			<g>
				<g>
					<path style="fill:#F5F5F5;" d="M213.513,136.082c1.285-9.335-11.889-17.014-21.789-17.812
						c-4.721-0.381-9.624,0.341-14.097-1.218c-9.69-3.377-13.561-15.896-23.016-19.884c-7.069-2.981-15.207-0.327-22.059,3.122
						c-6.853,3.449-13.625,7.789-21.281,8.279c-6.659,0.426-13.891-2.044-19.718,1.21c-4.342,2.424-6.616,7.427-10.618,10.379
						c-3.915,2.888-9.022,3.499-13.879,3.763c-4.858,0.264-9.887,0.313-14.31,2.338c-4.423,2.025-8.082,6.702-7.164,11.48
						L213.513,136.082z"/>
				</g>
			</g>
		</g>
	</g>
	<g>
		<g>
			<g>
				<g>
					<path style="fill:#F5F5F5;" d="M627.623,142.079c1.285-9.335-11.889-17.014-21.789-17.812
						c-4.721-0.381-9.625,0.341-14.097-1.218c-9.69-3.377-13.561-15.896-23.016-19.884c-7.069-2.981-15.207-0.327-22.059,3.122
						c-6.853,3.449-13.625,7.789-21.281,8.279c-6.659,0.426-13.891-2.043-19.718,1.21c-4.342,2.424-6.616,7.427-10.618,10.379
						c-3.915,2.888-9.022,3.499-13.88,3.763c-4.857,0.264-9.886,0.313-14.31,2.338c-4.423,2.025-8.082,6.702-7.164,11.48
						L627.623,142.079z"/>
				</g>
			</g>
		</g>
	</g>
	<g>
		<g>
			<g>
				<g>
					<path style="fill:#EBEBEB;" d="M313.255,75.091c0.775-5.628-7.168-10.257-13.136-10.738c-2.846-0.229-5.802,0.206-8.499-0.734
						c-5.842-2.036-8.175-9.583-13.875-11.987c-4.261-1.797-9.168-0.197-13.299,1.882c-4.131,2.079-8.214,4.696-12.83,4.991
						c-4.015,0.257-8.375-1.232-11.887,0.729c-2.617,1.461-3.988,4.478-6.401,6.257c-2.36,1.741-5.439,2.109-8.368,2.269
						c-2.928,0.159-5.96,0.189-8.627,1.41c-2.667,1.221-4.872,4.041-4.319,6.921L313.255,75.091z"/>
				</g>
			</g>
		</g>
	</g>
	<g>
		<g>
			<g>
				<g>
					<path style="fill:#EBEBEB;" d="M682.938,90.832c0.579-4.209-5.361-7.671-9.824-8.031c-2.128-0.172-4.339,0.154-6.356-0.549
						c-4.369-1.523-6.114-7.167-10.377-8.965c-3.187-1.344-6.856-0.148-9.946,1.407c-3.09,1.555-6.143,3.512-9.595,3.733
						c-3.003,0.192-6.263-0.921-8.89,0.545c-1.958,1.093-2.983,3.349-4.787,4.679c-1.765,1.302-4.068,1.578-6.258,1.697
						c-2.19,0.119-4.457,0.141-6.452,1.054c-1.994,0.913-3.644,3.022-3.23,5.176L682.938,90.832z"/>
				</g>
			</g>
		</g>
	</g>
	<g>
		<path style="fill:#EBEBEB;" d="M511.393,385.232c6.847,3.708,13.851,8.222,21.173,10.872
			c39.688,14.366,80.414,16.537,120.547,5.723c12.88-3.471,22.283-9.068,27.672-16.94c2.623-3.831,2.999-8.887,0.546-12.829
			c-3.921-6.299-12.198-5.844-19.041-4.611c-14.036,2.528-28.344,6.388-42.346,3.678c-9.39-1.818-17.945-6.483-26.917-9.797
			c-9.349-3.453-20.016-5.39-29.063-0.989c-0.748,0.364-1.312,1.082-1.388,1.91c-0.133,1.446,1.188,2.061,2.318,2.533
			c10.032,4.186,20.705,1.83,28.906,8.796c3.59,3.049,3.009,8.62-1.129,10.869c-5.273,2.865-13.663,4.171-21.292,3.378
			c-6.873-0.714-12.991-6.163-19.775-4.855"/>
	</g>
	<g>
		<g>
			<path style="fill:#EBEBEB;" d="M572.679,78.324l1.063,1.943c0.401,0.733,1.003,1.335,1.736,1.736l1.943,1.063l-1.943,1.063
				c-0.733,0.401-1.335,1.003-1.736,1.736l-1.063,1.943l-1.063-1.943c-0.401-0.733-1.003-1.335-1.736-1.736l-1.943-1.063
				l1.943-1.063c0.733-0.401,1.335-1.003,1.736-1.736L572.679,78.324z"/>
		</g>
	</g>
	<g>
		<g>
			<path style="fill:#EBEBEB;" d="M250.298,111.004l1.063,1.943c0.401,0.733,1.003,1.335,1.736,1.736l1.943,1.063l-1.943,1.063
				c-0.733,0.401-1.335,1.003-1.736,1.736l-1.063,1.943l-1.063-1.943c-0.401-0.733-1.003-1.335-1.736-1.736l-1.943-1.063
				l1.943-1.063c0.733-0.401,1.335-1.003,1.736-1.736L250.298,111.004z"/>
		</g>
	</g>
	<g>
		<g>
			<path style="fill:#EBEBEB;" d="M117.71,178.371l1.063,1.943c0.401,0.733,1.003,1.335,1.736,1.736l1.943,1.063l-1.943,1.063
				c-0.733,0.401-1.335,1.003-1.736,1.736l-1.063,1.943l-1.063-1.943c-0.401-0.733-1.003-1.335-1.736-1.736l-1.943-1.063
				l1.943-1.063c0.733-0.401,1.335-1.003,1.736-1.736L117.71,178.371z"/>
		</g>
	</g>
	<g>
		<g>
			<path style="fill:#EBEBEB;" d="M535.119,38.865l1.063,1.943c0.401,0.733,1.003,1.335,1.736,1.736l1.943,1.063l-1.943,1.063
				c-0.733,0.401-1.335,1.003-1.736,1.736l-1.063,1.943l-1.063-1.943c-0.401-0.733-1.003-1.335-1.736-1.736l-1.943-1.063
				l1.943-1.063c0.733-0.401,1.335-1.003,1.736-1.736L535.119,38.865z"/>
		</g>
	</g>
	<g>
		<g>
			<path style="fill:#EBEBEB;" d="M412.145,113.906l0.65,1.189c0.245,0.448,0.614,0.817,1.063,1.063l1.189,0.65l-1.189,0.65
				c-0.448,0.245-0.817,0.614-1.063,1.063l-0.65,1.189l-0.65-1.189c-0.245-0.448-0.614-0.817-1.063-1.063l-1.189-0.65l1.189-0.65
				c0.448-0.245,0.817-0.614,1.063-1.063L412.145,113.906z"/>
		</g>
	</g>
	<g>
		<g>
			<path style="fill:#E0E0E0;" d="M125.262,46.405l0.424,0.776c0.16,0.292,0.401,0.533,0.693,0.693l0.776,0.424l-0.776,0.424
				c-0.292,0.16-0.533,0.4-0.693,0.693l-0.424,0.776l-0.424-0.776c-0.16-0.293-0.401-0.533-0.693-0.693l-0.776-0.424l0.776-0.424
				c0.292-0.16,0.533-0.4,0.693-0.693L125.262,46.405z"/>
		</g>
	</g>
	<g>
		<g>
			<path style="fill:#E0E0E0;" d="M421.8,53.431l0.424,0.776c0.16,0.292,0.4,0.533,0.693,0.693l0.776,0.424l-0.776,0.424
				c-0.293,0.16-0.533,0.401-0.693,0.693l-0.424,0.776l-0.424-0.776c-0.16-0.293-0.4-0.533-0.693-0.693l-0.776-0.424l0.776-0.424
				c0.293-0.16,0.533-0.401,0.693-0.693L421.8,53.431z"/>
		</g>
	</g>
	<g>
		<g>
			<path style="fill:#E0E0E0;" d="M567.764,182.05l0.424,0.776c0.16,0.292,0.401,0.533,0.693,0.693l0.776,0.424l-0.776,0.424
				c-0.292,0.16-0.533,0.4-0.693,0.693l-0.424,0.776l-0.424-0.776c-0.16-0.293-0.401-0.533-0.693-0.693l-0.776-0.424l0.776-0.424
				c0.293-0.16,0.533-0.401,0.693-0.693L567.764,182.05z"/>
		</g>
	</g>
	<g>
		<g>
			<path style="fill:#E0E0E0;" d="M676.54,142.96l0.424,0.776c0.16,0.292,0.401,0.533,0.693,0.693l0.776,0.424l-0.776,0.424
				c-0.292,0.16-0.533,0.401-0.693,0.693l-0.424,0.776l-0.424-0.776c-0.16-0.293-0.4-0.533-0.693-0.693l-0.776-0.424l0.776-0.424
				c0.292-0.16,0.533-0.4,0.693-0.693L676.54,142.96z"/>
		</g>
	</g>
	<g>
		<g>
			<path style="fill:#E0E0E0;" d="M92.451,214.158l0.424,0.776c0.16,0.292,0.4,0.533,0.693,0.693l0.776,0.424l-0.776,0.424
				c-0.293,0.16-0.533,0.4-0.693,0.693l-0.424,0.776l-0.424-0.776c-0.16-0.293-0.4-0.533-0.693-0.693l-0.776-0.424l0.776-0.424
				c0.292-0.16,0.533-0.401,0.693-0.693L92.451,214.158z"/>
		</g>
	</g>
	<g>
		<g>
			<path style="fill:#E0E0E0;" d="M255.423,428.073c0,0.144-36.82,0.26-82.23,0.26c-45.425,0-82.238-0.117-82.238-0.26
				c0-0.144,36.812-0.26,82.238-0.26C218.603,427.813,255.423,427.93,255.423,428.073z"/>
		</g>
	</g>
	<g>
		<g>
			<path style="fill:#E0E0E0;" d="M297.208,421.586c0,0.144-20.843,0.26-46.548,0.26c-25.714,0-46.552-0.117-46.552-0.26
				c0-0.144,20.838-0.26,46.552-0.26C276.365,421.326,297.208,421.442,297.208,421.586z"/>
		</g>
	</g>
	<g>
		<g>
			<path style="fill:#EBEBEB;" d="M694.844,189.341l1.815,3.319c0.685,1.252,1.714,2.281,2.965,2.965l3.319,1.815l-3.319,1.815
				c-1.252,0.685-2.281,1.714-2.965,2.965l-1.815,3.319l-1.815-3.319c-0.685-1.252-1.714-2.281-2.965-2.965l-3.319-1.815
				l3.319-1.815c1.252-0.684,2.281-1.714,2.965-2.965L694.844,189.341z"/>
		</g>
	</g>
</g>
<g id="Background_Simple" style="display:none;">
	<path style="display:inline;fill:#F5F5F5;" d="M301.827,97.585c-5.019-19.025-25.327-41.647-43.878-48.204
		c-14.622-5.168-37.613-10.857-58.571-12.5c-8.499-0.666-17.047-0.224-25.451,1.206l-18.336,3.119
		C125.195,44.611,89.078,70.8,71.364,95.734c-17.713,24.934-21.714,60.018-6.751,86.694s49.715,41.646,78.377,30.971
		c18.109-6.745,31.605-21.764,45.164-35.532c13.56-13.768,29.197-27.409,48.354-29.942c13.99-1.85,28.708,2.465,42.085-2.03
		C297.244,139.626,306.845,116.61,301.827,97.585z"/>
	<path style="display:inline;fill:#F5F5F5;" d="M662.693,38.691c-26.41-17.29-65.517-13.769-86.152,10.119
		c-11.144,12.901-17.728,31.213-33.484,37.723c-15.684,6.48-33.368-1.753-50.332-1.309c-14.498,0.38-28.672,7.594-37.511,19.092
		c-8.839,11.498-12.166,27.05-8.805,41.159c23.44,41.775,54.857,54.45,96.704,61.684c31.736,5.486,67.281,0.669,96.064-13.782
		c28.21-14.163,50.762-40.726,56.633-71.742S689.103,55.98,662.693,38.691z"/>
	<path style="display:inline;fill:#F5F5F5;" d="M414.388,94.305c-2.148-9.487-6.772-14.49-12.315-22.484l-2.244-1.363
		c-11.23-9.898-27.65-13.748-41.955-9.338c-14.305,4.41-25.845,17.143-28.296,31.911c-2.451,14.768,4.606,30.81,17.429,38.534
		c9.64,5.807,21.5,6.831,32.685,5.587c9.184-1.022,18.755-3.801,24.868-10.731C410.993,119.126,416.537,103.792,414.388,94.305z"/>
</g>
<g id="Floor">
	<g>
		<g>
			<g>
				<path style="fill:#263238;" d="M718.693,336.814c0,0-0.356,0.041-1.052,0.095c-0.708,0.052-1.74,0.127-3.09,0.226
					c-2.729,0.188-6.732,0.463-11.885,0.817c-10.334,0.688-25.267,1.681-43.717,2.908c-36.927,2.406-87.922,5.728-144.244,9.398
					c-12.804,0.826-25.332,1.634-37.448,2.416l0.177-0.087c-15.221,17.471-29.507,33.868-42.381,48.644l-0.029,0.034l-0.04,0.02
					c-13.299,6.639-25.437,12.699-36.25,18.098l0.083-0.083c-8.625,17.057-15.605,30.861-20.435,40.413
					c-2.419,4.759-4.299,8.455-5.58,10.975c-0.639,1.245-1.128,2.196-1.463,2.848c-0.332,0.64-0.514,0.962-0.514,0.962
					s0.15-0.338,0.466-0.987c0.324-0.658,0.797-1.617,1.416-2.871c1.26-2.53,3.11-6.242,5.491-11.019
					c4.795-9.569,11.724-23.399,20.286-40.488l0.028-0.055l0.056-0.028c10.803-5.419,22.929-11.503,36.215-18.168l-0.069,0.053
					c12.86-14.789,27.131-31.199,42.335-48.684l0.07-0.081l0.107-0.007c12.115-0.784,24.643-1.595,37.447-2.424
					c56.326-3.61,107.324-6.879,144.253-9.246c18.455-1.158,33.391-2.095,43.728-2.743c5.155-0.312,9.161-0.554,11.891-0.72
					c1.351-0.076,2.385-0.134,3.093-0.174C718.335,336.819,718.693,336.814,718.693,336.814z"/>
			</g>
		</g>
		<g>
			<g>
				<path style="fill:#263238;" d="M459.247,408.957c-0.135-0.051,4.031-11.404,9.303-25.354
					c5.273-13.955,9.656-25.223,9.791-25.172c0.134,0.051-4.03,11.401-9.304,25.356
					C463.766,397.737,459.382,409.008,459.247,408.957z"/>
			</g>
		</g>
		<g>
			<g>
				<path style="fill:#263238;" d="M452.337,430.143c-0.117,0.083-3.861-5.003-8.359-11.359c-4.501-6.358-8.053-11.578-7.935-11.661
					c0.117-0.083,3.86,5.002,8.36,11.36C448.901,424.839,452.454,430.06,452.337,430.143z"/>
			</g>
		</g>
	</g>
</g>
<g id="Sun">
	<g>
		<g>
			<g>
				<path style="fill:#f49d0b;" d="M344.376,293.507l13.845,97.048l13.723-97.067c0.072,0.01,0.145,0.021,0.217,0.031l13.67-97.423
					c-11.024-1.777-22.329-2.715-33.854-2.715c-7.511,0-14.927,0.399-22.235,1.164l14.231,99.02
					C344.108,293.546,344.242,293.526,344.376,293.507z"/>
			</g>
			<g>
				<path style="fill:#f49d0b;" d="M358.437,391.365l139.419-162.142c-14.322-11.918-41.17-9.051-58.326-16.88L399.1,301.42
					c0.073,0.033,0.145,0.066,0.217,0.099L358.437,391.365z"/>
			</g>
			<g>
				<path style="fill:#f49d0b;" d="M359.359,391.396h-0.427l254.765-88.584c-6.411-18.229-15.25-35.312-26.134-50.862
					L358.881,391.396h-0.339l0.141-0.164l-0.252,0.164h-0.003l0.003-0.017l-0.02,0.017l0.092-0.532l-0.182,0.399l0.019,0.132
					l-0.117,0.087l-0.04-0.087h-0.082l0.019-0.135l-0.156-0.341l0.063,0.438l0.032,0.037h-0.027l0.002,0.014l-0.2-0.129l0.1,0.115
					h-0.327L187.121,287.133c-11.976,16.098-52.133,18.408-59.17,37.574l135.429,39.141c0-0.001,0-0.002,0.002-0.003l94.099,27.551
					h-0.37l0.908,0.266l-0.012,0.008l0.018-0.006l0.002,0.001l0.041-0.029l0.003,0.015l0.063-0.018l-0.009-0.018l0.013,0.016
					l0.021-0.006l-0.009,0.018l0.023,0.028l0.065,0.055l0.053-0.039l-0.012,0.027l0.044-0.013l-0.003-0.006l0.004,0.005l0.057-0.017
					l0.004,0.022l0.038-0.034l0.022,0.006l-0.059,0.039l0.381,0.165l-0.312-0.201l0.002-0.011h-0.032l0.01-0.003l-0.041-0.027
					l0.012-0.088l0.433-0.129l-0.355,0.23L359.359,391.396z"/>
			</g>
			<g>
				<path style="fill:#f49d0b;" d="M293.415,316.801l64.571,74.51l-40.958-89.742c0.01-0.005,0.022-0.01,0.032-0.015l-42.761-93.421
					c-18.17,7.193-39.04,11.176-54.33,22.86l73.432,85.82C293.406,316.81,293.41,316.805,293.415,316.801z"/>
			</g>
			<g>
				<polygon style="fill:#f49d0b;" points="358.359,391.887 358.361,391.88 358.344,391.871 				"/>
			</g>
			<g>
				<polygon style="fill:#f49d0b;" points="358.126,391.694 358.114,391.721 358.076,391.697 358.088,391.771 358.095,391.762 
					358.092,391.77 358.158,391.751 358.125,391.729 358.148,391.701 358.165,391.706 358.158,391.689 358.173,391.672 
					358.073,391.672 				"/>
			</g>
			<g>
				<polygon style="fill:#f49d0b;" points="357.652,391.9 358.047,391.783 358.06,391.687 358.036,391.672 				"/>
			</g>
			<g>
				<polygon style="fill:#f49d0b;" points="358.377,391.762 358.383,391.72 358.356,391.737 				"/>
			</g>
			<g>
				<polygon style="fill:#f49d0b;" points="358.127,392.047 358.233,392.787 358.333,392.073 358.224,391.833 				"/>
			</g>
			<g>
				<polygon style="fill:#f49d0b;" points="358.343,391.746 358.33,391.754 358.349,391.759 				"/>
			</g>
		</g>
		<g style="opacity:0.9;">
			<g>
				<path style="fill:#FFFFFF;" d="M344.376,293.507l13.845,97.048l13.723-97.067c0.072,0.01,0.145,0.021,0.217,0.031l13.67-97.423
					c-11.024-1.777-22.329-2.715-33.854-2.715c-7.511,0-14.927,0.399-22.235,1.164l14.231,99.02
					C344.108,293.546,344.242,293.526,344.376,293.507z"/>
			</g>
			<g>
				<path style="fill:#FFFFFF;" d="M358.437,391.365l139.419-162.142c-14.322-11.918-41.17-9.051-58.326-16.88L399.1,301.42
					c0.073,0.033,0.145,0.066,0.217,0.099L358.437,391.365z"/>
			</g>
			<g>
				<path style="fill:#FFFFFF;" d="M359.359,391.396h-0.427l254.765-88.584c-6.411-18.229-15.25-35.312-26.134-50.862
					L358.881,391.396h-0.339l0.141-0.164l-0.252,0.164h-0.003l0.003-0.017l-0.02,0.017l0.092-0.532l-0.182,0.399l0.019,0.132
					l-0.117,0.087l-0.04-0.087h-0.082l0.019-0.135l-0.156-0.341l0.063,0.438l0.032,0.037h-0.027l0.002,0.014l-0.2-0.129l0.1,0.115
					h-0.327L187.121,287.133c-11.976,16.098-52.133,18.408-59.17,37.574l135.429,39.141c0-0.001,0-0.002,0.002-0.003l94.099,27.551
					h-0.37l0.908,0.266l-0.012,0.008l0.018-0.006l0.002,0.001l0.041-0.029l0.003,0.015l0.063-0.018l-0.009-0.018l0.013,0.016
					l0.021-0.006l-0.009,0.018l0.023,0.028l0.065,0.055l0.053-0.039l-0.012,0.027l0.044-0.013l-0.003-0.006l0.004,0.005l0.057-0.017
					l0.004,0.022l0.038-0.034l0.022,0.006l-0.059,0.039l0.381,0.165l-0.312-0.201l0.002-0.011h-0.032l0.01-0.003l-0.041-0.027
					l0.012-0.088l0.433-0.129l-0.355,0.23L359.359,391.396z"/>
			</g>
			<g>
				<path style="fill:#FFFFFF;" d="M293.415,316.801l64.571,74.51l-40.958-89.742c0.01-0.005,0.022-0.01,0.032-0.015l-42.761-93.421
					c-18.17,7.193-39.04,11.176-54.33,22.86l73.432,85.82C293.406,316.81,293.41,316.805,293.415,316.801z"/>
			</g>
			<g>
				<polygon style="fill:#FFFFFF;" points="358.359,391.887 358.361,391.88 358.344,391.871 				"/>
			</g>
			<g>
				<polygon style="fill:#FFFFFF;" points="358.126,391.694 358.114,391.721 358.076,391.697 358.088,391.771 358.095,391.762 
					358.092,391.77 358.158,391.751 358.125,391.729 358.148,391.701 358.165,391.706 358.158,391.689 358.173,391.672 
					358.073,391.672 				"/>
			</g>
			<g>
				<polygon style="fill:#FFFFFF;" points="357.652,391.9 358.047,391.783 358.06,391.687 358.036,391.672 				"/>
			</g>
			<g>
				<polygon style="fill:#FFFFFF;" points="358.377,391.762 358.383,391.72 358.356,391.737 				"/>
			</g>
			<g>
				<polygon style="fill:#FFFFFF;" points="358.127,392.047 358.233,392.787 358.333,392.073 358.224,391.833 				"/>
			</g>
			<g>
				<polygon style="fill:#FFFFFF;" points="358.343,391.746 358.33,391.754 358.349,391.759 				"/>
			</g>
		</g>
	</g>
	<g>
		<path style="fill:#f49d0b;" d="M309.074,390.551c0.589-18.742,11.686-38.845,28.137-47.845c16.451-9,37.65-8.601,53.751,1.01
			c16.101,9.612,26.511,28.083,26.395,46.834"/>
	</g>
</g>
<g id="Character">
	<g>
		<g>
			<g>
				<g>
					<path style="fill:#f49d0b;" d="M551.886,322.063l-0.949,24.965c0,0-25.694,7.42-26.318,12.017l48.339,3.578l3.074-38.838
						L551.886,322.063z"/>
				</g>
				<g style="opacity:0.6;">
					<g>
						<path style="fill:#FFFFFF;" d="M566.04,346.04c0.917,0.325,1.485,1.425,1.198,2.354c-0.287,0.929-1.4,1.517-2.323,1.208
							c-0.922-0.309-1.645-1.608-1.256-2.499c0.389-0.891,1.734-1.51,2.555-0.989"/>
					</g>
				</g>
				<g style="opacity:0.6;">
					<path style="fill:#FFFFFF;" d="M572.958,362.623l0.157-3.927l-46.405-1.962c0,0-2.221,0.777-2.09,2.311L572.958,362.623z"/>
				</g>
				<g>
					<g>
						<path style="fill:#263238;" d="M550.172,346.724c-0.01,0.237,1.163,0.431,2.268,1.276c1.128,0.816,1.65,1.883,1.874,1.805
							c0.221-0.03-0.026-1.467-1.383-2.466C551.585,346.328,550.137,346.504,550.172,346.724z"/>
					</g>
				</g>
				<g>
					<g>
						<path style="fill:#263238;" d="M544.947,348.446c-0.071,0.225,0.922,0.702,1.649,1.76c0.759,1.036,0.881,2.131,1.117,2.138
							c0.219,0.053,0.485-1.317-0.445-2.615C546.35,348.423,544.969,348.221,544.947,348.446z"/>
					</g>
				</g>
				<g>
					<g>
						<path style="fill:#263238;" d="M541.618,354.301c0.211,0.066,0.627-1.089,0.116-2.426c-0.501-1.342-1.576-1.934-1.691-1.745
							c-0.148,0.184,0.518,0.931,0.92,2.036C541.391,353.26,541.385,354.26,541.618,354.301z"/>
					</g>
				</g>
				<g>
					<g>
						<path style="fill:#263238;" d="M551.02,341.059c0.083,0.222,1.19-0.023,2.517,0.166c1.331,0.162,2.336,0.687,2.474,0.494
							c0.149-0.161-0.8-1.109-2.367-1.31C552.081,340.195,550.917,340.865,551.02,341.059z"/>
					</g>
				</g>
			</g>
			<g style="opacity:0.3;">
				<polygon points="551.704,327.008 551.529,331.457 575.303,332.999 575.629,329.003 				"/>
			</g>
			<g>
				<g>
					<path style="fill:#263238;" d="M551.304,336.026c-0.01,0.097,0.912,0.312,2.422,0.167c0.751-0.074,1.643-0.251,2.59-0.591
						c0.473-0.17,0.959-0.38,1.445-0.635c0.233-0.127,0.508-0.251,0.773-0.515c0.28-0.227,0.475-0.842,0.201-1.248
						c-0.22-0.39-0.646-0.582-0.995-0.616c-0.355-0.038-0.649,0.012-0.917,0.058c-0.548,0.091-1.066,0.232-1.543,0.405
						c-0.955,0.352-1.744,0.828-2.341,1.3c-1.198,0.956-1.646,1.809-1.569,1.861c0.101,0.086,0.701-0.613,1.906-1.386
						c0.601-0.384,1.36-0.772,2.249-1.057c0.445-0.14,0.922-0.254,1.422-0.326c0.522-0.097,0.958-0.068,1.072,0.169
						c0.041,0.091,0.045,0.125-0.073,0.267c-0.121,0.13-0.339,0.25-0.568,0.376c-0.448,0.247-0.896,0.458-1.333,0.636
						c-0.874,0.356-1.702,0.582-2.407,0.724C552.226,335.9,551.309,335.898,551.304,336.026z"/>
				</g>
			</g>
			<g>
				<g>
					<path style="fill:#263238;" d="M551.586,336.387c0.081,0.042,0.612-0.769,0.811-2.291c0.097-0.755,0.086-1.68-0.134-2.675
						c-0.113-0.496-0.278-1.008-0.508-1.516c-0.248-0.499-0.546-1.163-1.454-1.336c-0.477-0.053-0.902,0.291-1.061,0.6
						c-0.184,0.315-0.237,0.593-0.314,0.869c-0.131,0.558-0.161,1.112-0.122,1.63c0.076,1.04,0.434,1.927,0.849,2.577
						c0.852,1.323,1.816,1.677,1.842,1.599c0.088-0.113-0.702-0.629-1.335-1.887c-0.312-0.62-0.571-1.426-0.598-2.331
						c-0.014-0.451,0.028-0.925,0.148-1.396c0.113-0.508,0.337-0.908,0.526-0.842c0.24,0.014,0.62,0.431,0.788,0.856
						c0.216,0.452,0.381,0.91,0.503,1.357c0.238,0.896,0.308,1.742,0.29,2.45C551.778,335.476,551.461,336.341,551.586,336.387z"/>
				</g>
			</g>
		</g>
		<g>
			<g>
				<g>
					<path style="fill:#f49d0b;" d="M538.018,347.265l-0.949,24.965c0,0-25.694,7.42-26.319,12.017l48.339,3.578l3.074-38.838
						L538.018,347.265z"/>
				</g>
				<g style="opacity:0.6;">
					<g>
						<path style="fill:#FFFFFF;" d="M552.172,371.241c0.917,0.325,1.485,1.425,1.198,2.354c-0.287,0.929-1.401,1.517-2.323,1.208
							c-0.922-0.309-1.645-1.608-1.256-2.499c0.389-0.891,1.734-1.51,2.555-0.989"/>
					</g>
				</g>
				<g style="opacity:0.6;">
					<path style="fill:#FFFFFF;" d="M559.09,387.824l0.157-3.927l-46.405-1.962c0,0-2.221,0.777-2.09,2.311L559.09,387.824z"/>
				</g>
				<g>
					<g>
						<path style="fill:#263238;" d="M536.304,371.926c-0.01,0.237,1.163,0.431,2.268,1.276c1.128,0.816,1.65,1.883,1.875,1.805
							c0.221-0.03-0.027-1.467-1.383-2.466C537.717,371.529,536.269,371.705,536.304,371.926z"/>
					</g>
				</g>
				<g>
					<g>
						<path style="fill:#263238;" d="M531.079,373.647c-0.071,0.225,0.922,0.702,1.649,1.76c0.759,1.036,0.881,2.131,1.117,2.138
							c0.219,0.053,0.485-1.317-0.445-2.615C532.482,373.625,531.1,373.423,531.079,373.647z"/>
					</g>
				</g>
				<g>
					<g>
						<path style="fill:#263238;" d="M527.75,379.503c0.211,0.066,0.627-1.089,0.116-2.426c-0.501-1.342-1.576-1.934-1.691-1.745
							c-0.148,0.184,0.518,0.931,0.92,2.035C527.523,378.462,527.517,379.462,527.75,379.503z"/>
					</g>
				</g>
				<g>
					<g>
						<path style="fill:#263238;" d="M537.151,366.26c0.083,0.222,1.19-0.023,2.518,0.166c1.331,0.162,2.336,0.687,2.474,0.494
							c0.149-0.161-0.8-1.109-2.367-1.31C538.212,365.397,537.049,366.066,537.151,366.26z"/>
					</g>
				</g>
			</g>
			<g style="opacity:0.3;">
				<polygon points="537.836,352.21 537.661,356.658 561.435,358.201 561.761,354.204 				"/>
			</g>
			<g>
				<g>
					<path style="fill:#263238;" d="M537.436,361.227c-0.01,0.097,0.912,0.312,2.422,0.167c0.751-0.074,1.643-0.252,2.59-0.591
						c0.473-0.17,0.959-0.38,1.445-0.635c0.233-0.127,0.508-0.251,0.773-0.515c0.28-0.227,0.475-0.842,0.201-1.248
						c-0.22-0.39-0.646-0.582-0.995-0.616c-0.355-0.038-0.649,0.012-0.917,0.058c-0.548,0.091-1.066,0.232-1.543,0.405
						c-0.955,0.352-1.744,0.827-2.341,1.3c-1.198,0.956-1.646,1.809-1.569,1.861c0.101,0.086,0.701-0.613,1.906-1.386
						c0.601-0.384,1.36-0.772,2.249-1.057c0.445-0.14,0.922-0.254,1.422-0.326c0.522-0.097,0.958-0.068,1.072,0.169
						c0.041,0.091,0.045,0.125-0.073,0.267c-0.121,0.13-0.339,0.25-0.568,0.376c-0.448,0.247-0.896,0.458-1.333,0.636
						c-0.874,0.356-1.702,0.582-2.407,0.724C538.357,361.102,537.441,361.099,537.436,361.227z"/>
				</g>
			</g>
			<g>
				<g>
					<path style="fill:#263238;" d="M537.718,361.589c0.081,0.043,0.612-0.769,0.811-2.291c0.097-0.755,0.086-1.68-0.134-2.675
						c-0.112-0.496-0.278-1.008-0.508-1.516c-0.248-0.499-0.546-1.164-1.454-1.336c-0.477-0.053-0.902,0.291-1.061,0.6
						c-0.184,0.315-0.237,0.593-0.314,0.869c-0.131,0.558-0.161,1.112-0.122,1.63c0.076,1.04,0.434,1.927,0.849,2.577
						c0.852,1.323,1.816,1.677,1.842,1.599c0.087-0.113-0.702-0.629-1.335-1.887c-0.312-0.62-0.571-1.426-0.597-2.331
						c-0.014-0.451,0.028-0.925,0.148-1.396c0.114-0.508,0.337-0.908,0.526-0.842c0.24,0.014,0.62,0.431,0.788,0.856
						c0.216,0.452,0.381,0.91,0.503,1.357c0.238,0.896,0.308,1.742,0.29,2.45C537.91,360.678,537.592,361.543,537.718,361.589z"/>
				</g>
			</g>
		</g>
		<g>
			<g>
				<g>
					<polygon style="fill:#263238;" points="602.245,284.845 574.904,265.18 551.861,265.764 549.586,327.498 577.867,330.775 
						579.185,304.035 612.801,330.054 622.161,303.272 					"/>
				</g>
				<g>
					<g>
						<path style="fill:#263238;" d="M610.548,317.328l-4.641-9.276l-28.584-26.277c-5.34-4.801-18.829-5.383-25.9-4.13h2.249
							c-10.631,1.885-14.316,14.403-14.949,25.181l-2.717,51.907c0,0,16.343,2.503,27.179-0.027l2.164-35.865
							c0,0,24.348,34.498,26.996,37.403c5.683,6.232,16.511,22.106,34.544,22.195c22.439,0.111,38.249-17.46,38.249-17.46
							l-14.435-20.087L610.548,317.328z"/>
					</g>
					<g>
						<g>
							<path style="fill:#455A64;" d="M560.127,306.466c0.063-0.032,0.545,0.775,1.257,2.113c0.713,1.337,1.653,3.207,2.67,5.28
								c0.976,1.98,1.859,3.772,2.612,5.3c0.676,1.351,1.113,2.178,1.049,2.218c-0.058,0.036-0.61-0.729-1.373-2.043
								c-0.764-1.313-1.737-3.17-2.756-5.245c-1.019-2.075-1.905-3.969-2.533-5.347
								C560.427,307.363,560.062,306.499,560.127,306.466z"/>
						</g>
					</g>
					<g>
						<g>
							<path style="fill:#455A64;" d="M565.608,320.771c-0.022,0.056-0.751-0.151-1.828-0.725c-1.076-0.57-2.474-1.555-3.741-2.932
								c-1.263-1.381-2.124-2.859-2.599-3.98c-0.479-1.123-0.622-1.867-0.565-1.884c0.156-0.07,1.061,2.838,3.548,5.512
								C562.871,319.469,565.691,320.622,565.608,320.771z"/>
						</g>
					</g>
					<g>
						<g>
							<path style="fill:#455A64;" d="M593.721,357.81c-0.014,0.011-0.207-0.221-0.559-0.673c-0.375-0.492-0.882-1.156-1.521-1.993
								c-1.328-1.787-3.198-4.305-5.497-7.4c-4.595-6.283-10.973-14.94-17.667-24.76c-1.096-1.679-2.224-3.264-3.104-4.974
								l0.492-0.093c-0.535,10.498-0.978,19.793-1.652,26.434c-0.322,3.321-0.653,5.98-0.93,7.804
								c-0.127,0.913-0.258,1.616-0.338,2.092c-0.084,0.476-0.137,0.723-0.153,0.721c-0.016-0.003,0.004-0.255,0.057-0.735
								c0.062-0.524,0.144-1.223,0.248-2.102c0.219-1.829,0.496-4.49,0.773-7.81c0.581-6.639,0.961-15.924,1.479-26.431l0.047-0.955
								l0.445,0.862c0.832,1.61,1.981,3.239,3.067,4.898c6.683,9.804,13.016,18.499,17.533,24.835
								c2.242,3.135,4.067,5.686,5.362,7.497c0.605,0.861,1.086,1.544,1.442,2.051C593.571,357.547,593.735,357.799,593.721,357.81z
								"/>
						</g>
					</g>
					<g>
						<g>
							<path style="fill:#455A64;" d="M599.013,301.816c-0.006,0.007-0.098-0.066-0.272-0.214c-0.192-0.168-0.445-0.388-0.763-0.667
								c-0.687-0.616-1.66-1.488-2.9-2.6c-2.532-2.241-6.07-5.633-10.713-9.492c-2.334-1.911-4.969-3.918-8.007-5.74
								c-3.031-1.819-6.493-3.428-10.341-4.419c-3.83-0.999-8.094-1.31-12.305-0.385c-2.095,0.469-4.162,1.276-6.018,2.48
								c-1.865,1.192-3.451,2.844-4.587,4.811c-1.15,1.964-1.852,4.136-2.362,6.304c-0.505,2.174-0.824,4.361-1.113,6.516
								c-0.597,4.305-1.047,8.475-1.4,12.454c-0.694,7.96-1.018,15.154-1.231,21.195c-0.209,6.042-0.312,10.934-0.4,14.315
								c-0.046,1.665-0.083,2.97-0.109,3.893c-0.017,0.423-0.031,0.757-0.041,1.012c-0.012,0.228-0.023,0.345-0.032,0.345
								c-0.009,0-0.016-0.117-0.022-0.345c-0.003-0.255-0.006-0.59-0.011-1.013c0.002-0.923,0.006-2.229,0.011-3.894
								c0.025-3.382,0.073-8.276,0.235-14.323c0.166-6.046,0.453-13.248,1.121-21.224c0.341-3.987,0.781-8.167,1.373-12.483
								c0.285-2.157,0.604-4.359,1.114-6.564c0.516-2.198,1.23-4.419,2.417-6.448c1.172-2.032,2.829-3.757,4.755-4.983
								c1.918-1.241,4.042-2.067,6.189-2.543c4.312-0.94,8.654-0.607,12.537,0.419c3.9,1.019,7.395,2.662,10.444,4.514
								c3.054,1.855,5.691,3.89,8.019,5.826c4.63,3.91,8.125,7.339,10.616,9.627c1.212,1.143,2.162,2.039,2.834,2.672
								c0.304,0.294,0.545,0.527,0.728,0.704C598.939,301.724,599.019,301.81,599.013,301.816z"/>
						</g>
					</g>
					<g>
						<g>
							<g>
								<path style="fill:#455A64;" d="M565.709,313.085c-0.115,0.087-0.546-0.288-0.963-0.838c-0.418-0.55-0.663-1.066-0.549-1.153
									c0.114-0.087,0.546,0.288,0.963,0.838C565.578,312.482,565.823,312.998,565.709,313.085z"/>
							</g>
						</g>
						<g>
							<g>
								<path style="fill:#455A64;" d="M571.706,320.982c-0.115,0.087-0.879-0.727-1.707-1.817
									c-0.828-1.091-1.407-2.045-1.292-2.132c0.114-0.087,0.878,0.726,1.707,1.817
									C571.242,319.941,571.821,320.895,571.706,320.982z"/>
							</g>
						</g>
						<g>
							<g>
								<path style="fill:#455A64;" d="M577.704,328.879c-0.115,0.087-0.879-0.726-1.707-1.817
									c-0.828-1.091-1.407-2.045-1.292-2.132c0.115-0.087,0.879,0.726,1.707,1.817
									C577.24,327.838,577.818,328.792,577.704,328.879z"/>
							</g>
						</g>
						<g>
							<g>
								<path style="fill:#455A64;" d="M583.707,336.772c-0.114,0.088-0.88-0.725-1.709-1.814c-0.83-1.09-1.41-2.043-1.295-2.131
									c0.114-0.087,0.879,0.726,1.709,1.815C583.241,335.731,583.821,336.685,583.707,336.772z"/>
							</g>
						</g>
						<g>
							<g>
								<path style="fill:#455A64;" d="M589.842,344.562c-0.111,0.091-0.896-0.702-1.753-1.772c-0.857-1.07-1.46-2.009-1.347-2.098
									c0.113-0.089,0.898,0.705,1.753,1.772C589.35,343.532,589.953,344.471,589.842,344.562z"/>
							</g>
						</g>
						<g>
							<g>
								<path style="fill:#455A64;" d="M596.356,352.037c-0.105,0.099-0.934-0.648-1.853-1.667c-0.919-1.02-1.575-1.922-1.466-2.016
									c0.109-0.094,0.938,0.652,1.853,1.667C595.804,351.036,596.461,351.939,596.356,352.037z"/>
							</g>
						</g>
						<g>
							<g>
								<path style="fill:#455A64;" d="M603.477,358.936c-0.094,0.109-0.989-0.556-1.999-1.486c-1.01-0.93-1.748-1.767-1.647-1.87
									c0.101-0.103,0.996,0.563,1.999,1.486C602.833,357.99,603.571,358.827,603.477,358.936z"/>
							</g>
						</g>
						<g>
							<g>
								<path style="fill:#455A64;" d="M611.373,364.914c-0.071,0.118-1.075-0.386-2.206-1.173c-1.11-0.812-1.939-1.562-1.851-1.676
									s1.051,0.446,2.152,1.251C610.584,364.092,611.451,364.785,611.373,364.914z"/>
							</g>
						</g>
						<g>
							<g>
								<path style="fill:#455A64;" d="M620.745,367.432c0.028,0.135-1.086,0.454-2.495,0.336c-1.392-0.194-2.454-0.617-2.411-0.731
									c0.05-0.157,1.136,0.025,2.454,0.212C619.623,367.362,620.722,367.284,620.745,367.432z"/>
							</g>
						</g>
						<g>
							<g>
								<path style="fill:#455A64;" d="M629.32,362.799c0.103,0.094-0.586,1.002-1.69,1.855c-1.102,0.858-2.162,1.288-2.225,1.163
									c-0.07-0.13,0.843-0.746,1.906-1.574C628.378,363.419,629.212,362.697,629.32,362.799z"/>
							</g>
						</g>
						<g>
							<g>
								<path style="fill:#455A64;" d="M634.498,354.41c0.131,0.052-0.171,1.136-0.778,2.378c-0.604,1.245-1.292,2.143-1.412,2.067
									c-0.124-0.077,0.351-1.074,0.944-2.296C633.849,355.339,634.362,354.355,634.498,354.41z"/>
							</g>
						</g>
						<g>
							<g>
								<path style="fill:#455A64;" d="M636.945,347.354c0.137,0.043,0.078,0.612-0.132,1.27c-0.21,0.659-0.491,1.156-0.628,1.111
									c-0.137-0.045-0.078-0.613,0.132-1.27C636.527,347.809,636.808,347.311,636.945,347.354z"/>
							</g>
						</g>
					</g>
					<g>
						<g>
							<path style="fill:#455A64;" d="M648.85,373.212c0.008,0.018-0.263,0.179-0.81,0.276c-0.543,0.103-1.363,0.129-2.331-0.046
								c-0.972-0.152-2.088-0.484-3.33-0.686c-1.236-0.214-2.621-0.111-3.951,0.456c-1.334,0.548-2.492,1.348-3.543,2.074
								c-1.05,0.731-2.009,1.393-2.865,1.873c-0.847,0.496-1.602,0.772-2.12,0.946c-0.535,0.134-0.831,0.189-0.839,0.154
								c-0.026-0.09,1.153-0.367,2.77-1.417c0.814-0.51,1.737-1.192,2.776-1.948c1.04-0.749,2.213-1.584,3.624-2.165
								c1.397-0.603,2.945-0.702,4.225-0.447c1.287,0.237,2.382,0.605,3.32,0.798C647.659,373.536,648.832,373.124,648.85,373.212z"
								/>
						</g>
					</g>
					<g>
						<g>
							<path style="fill:#455A64;" d="M613.182,352.852c-0.027,0.024-0.283-0.234-0.726-0.724c-0.226-0.242-0.491-0.547-0.765-0.929
								c-0.278-0.378-0.618-0.794-0.921-1.303c-0.659-0.984-1.323-2.234-1.939-3.676c-0.588-1.453-1.109-3.103-1.449-4.882
								c-0.319-1.784-0.422-3.512-0.393-5.079c0.059-1.567,0.233-2.972,0.496-4.127c0.101-0.583,0.27-1.094,0.394-1.546
								c0.119-0.454,0.258-0.834,0.382-1.141c0.238-0.616,0.385-0.949,0.419-0.936c0.096,0.033-0.426,1.397-0.834,3.693
								c-0.213,1.145-0.345,2.529-0.378,4.066c-0.002,1.537,0.113,3.228,0.425,4.975c0.333,1.743,0.83,3.362,1.382,4.797
								c0.58,1.423,1.198,2.668,1.807,3.662C612.284,351.699,613.259,352.787,613.182,352.852z"/>
						</g>
					</g>
					<g>
						<g>
							<path style="fill:#455A64;" d="M604.572,340.915c-0.039,0.035-0.641-0.577-1.142-1.846c-0.502-1.245-0.809-3.214-0.173-5.229
								c0.642-2.013,2.029-3.445,3.157-4.173c1.141-0.748,1.986-0.901,1.997-0.85c0.034,0.084-0.75,0.36-1.783,1.149
								c-1.026,0.772-2.276,2.155-2.875,4.03c-0.592,1.877-0.369,3.728,0.024,4.95C604.167,340.188,604.648,340.866,604.572,340.915
								z"/>
						</g>
					</g>
					<g>
						<g>
							<g>
								<path style="fill:#455A64;" d="M562.034,321.394c-0.143-0.012-0.215-0.579-0.159-1.267c0.055-0.688,0.217-1.237,0.36-1.225
									c0.143,0.012,0.214,0.579,0.159,1.267C562.339,320.857,562.178,321.405,562.034,321.394z"/>
							</g>
						</g>
						<g>
							<g>
								<path style="fill:#455A64;" d="M561.322,330.231c-0.143-0.012-0.18-1.01-0.082-2.23c0.098-1.22,0.294-2.2,0.438-2.188
									c0.143,0.012,0.18,1.01,0.081,2.23C561.661,329.263,561.465,330.242,561.322,330.231z"/>
							</g>
						</g>
						<g>
							<g>
								<path style="fill:#455A64;" d="M560.61,339.068c-0.143-0.012-0.18-1.01-0.081-2.23c0.098-1.22,0.294-2.2,0.438-2.188
									c0.143,0.012,0.18,1.01,0.081,2.23C560.949,338.1,560.753,339.08,560.61,339.068z"/>
							</g>
						</g>
						<g>
							<g>
								<path style="fill:#455A64;" d="M559.897,347.905c-0.143-0.012-0.18-1.01-0.082-2.23c0.098-1.22,0.294-2.2,0.438-2.189
									c0.143,0.012,0.18,1.01,0.081,2.23C560.236,346.937,560.04,347.917,559.897,347.905z"/>
							</g>
						</g>
						<g>
							<g>
								<path style="fill:#455A64;" d="M559.34,354.816c-0.143-0.012-0.215-0.579-0.159-1.267c0.055-0.688,0.217-1.237,0.36-1.225
									c0.143,0.012,0.214,0.579,0.159,1.267C559.645,354.279,559.483,354.827,559.34,354.816z"/>
							</g>
						</g>
					</g>
					<g>
						<g>
							<g>
								<path style="fill:#455A64;" d="M561.235,314.826c0.105,0.091-0.249,0.627-0.958,0.905c-0.71,0.283-1.339,0.117-1.319-0.022
									c0.01-0.148,0.54-0.225,1.128-0.463C560.679,315.018,561.13,314.721,561.235,314.826z"/>
							</g>
						</g>
						<g>
							<g>
								<path style="fill:#455A64;" d="M561.589,310.582c0.101-0.098,0.602,0.317,0.787,1.058c0.188,0.738-0.04,1.338-0.176,1.306
									c-0.147-0.024-0.168-0.564-0.329-1.178C561.721,311.152,561.475,310.676,561.589,310.582z"/>
							</g>
						</g>
					</g>
				</g>
			</g>
			<g>
				<g>
					<path style="fill:#f49d0b;" d="M541.343,289.457c0.019,0.012-0.067,0.186-0.198,0.525c-0.119,0.346-0.279,0.863-0.43,1.545
						c-0.313,1.36-0.652,3.358-0.974,5.84c-0.656,4.963-1.281,11.859-1.789,19.486c-0.504,7.631-0.791,14.549-0.931,19.557
						c-0.058,2.45-0.105,4.459-0.14,5.933c-0.017,0.653-0.031,1.187-0.041,1.614c-0.015,0.369-0.031,0.563-0.049,0.563
						c-0.018,0-0.037-0.193-0.056-0.562c-0.015-0.427-0.034-0.961-0.056-1.614c-0.031-1.402-0.049-3.432-0.026-5.94
						c0.046-5.016,0.275-11.945,0.779-19.585c0.509-7.636,1.193-14.538,1.944-19.503c0.37-2.483,0.765-4.481,1.142-5.839
						c0.182-0.68,0.376-1.195,0.529-1.535C541.214,289.608,541.332,289.449,541.343,289.457z"/>
				</g>
			</g>
		</g>
		<g>
			<g>
				<g>
					<path style="fill:#FFBE9D;" d="M526.139,288.103c-0.427,0.421-4.507,10.709-5.291,10.941c-0.784,0.232-1.638-0.515-1.86-1.99
						c-0.223-1.475,1.708-7.596,1.708-7.596l-4.969,2.496l-2.178,5.47c0,0-1.585,6.435-2.964,6.097
						c-1.379-0.338-1.097-0.357-1.256-2.335c-0.158-1.978,1.11-6.168,1.11-6.168s-1.774,9.438-4.578,7.997
						c-0.877-0.451,1.04-9.002,0.804-8.263c-3.652,11.457-5.045,5.914-4.739,4.199l1.434-9.947l9.214-13.623l12.057,2.937
						L526.139,288.103z"/>
				</g>
				<g>
					<g>
						<path style="fill:#EB996E;" d="M512.517,291.014c0.045,0.071-0.371,0.335-0.731,0.995c-0.378,0.649-0.625,1.688-0.967,2.844
							c-0.681,2.299-1.344,4.13-1.482,4.089c-0.138-0.041,0.302-1.937,0.983-4.237c0.337-1.136,0.652-2.222,1.156-2.895
							C511.967,291.126,512.499,290.956,512.517,291.014z"/>
					</g>
				</g>
				<g>
					<g>
						<path style="fill:none;stroke:#F9DED0;stroke-width:0.05;stroke-miterlimit:10;" d="M506.513,297.054"/>
					</g>
				</g>
				<g>
					<g>
						<path style="fill:#EB996E;" d="M509.424,288.981c0.128,0.082-0.761,1.622-1.577,3.639c-0.828,2.013-1.269,3.735-1.418,3.704
							c-0.134-0.021,0.087-1.833,0.936-3.901C508.204,290.352,509.314,288.903,509.424,288.981z"/>
					</g>
				</g>
				<g>
					<g>
						<path style="fill:#EB996E;" d="M518.412,285.226c0.108,0.076-1.44,1.557-3.945,1.972c-2.501,0.444-4.453-0.437-4.377-0.545
							c0.038-0.156,1.944,0.454,4.289,0.032C516.73,286.302,518.324,285.091,518.412,285.226z"/>
					</g>
				</g>
				<g>
					<g>
						<path style="fill:#EB996E;" d="M522.336,288.143c0.037,0.129-1.393,0.445-3.032-0.155c-1.645-0.584-2.544-1.74-2.433-1.816
							c0.107-0.112,1.097,0.794,2.61,1.326C520.984,288.054,522.324,287.988,522.336,288.143z"/>
					</g>
				</g>
				<g>
					<g>
						<path style="fill:#EB996E;" d="M514.171,289.803c0.146-0.027,0.36,0.522,0.771,1.084c0.401,0.57,0.852,0.948,0.779,1.078
							c-0.058,0.126-0.722-0.099-1.203-0.774C514.034,290.518,514.033,289.817,514.171,289.803z"/>
					</g>
				</g>
			</g>
			<g>
				<g>
					<path style="fill:#f49d0b;" d="M512.227,275.884c0.029,0.022-0.169,0.341-0.55,0.902c-0.453,0.65-0.998,1.434-1.637,2.352
						c-1.374,1.985-3.289,4.73-4.908,8.025c-1.62,3.293-2.471,6.541-2.707,8.927c-0.259,2.39-0.045,3.886-0.142,3.894
						c-0.031,0.004-0.115-0.364-0.191-1.041c-0.078-0.677-0.116-1.667-0.034-2.886c0.145-2.438,0.96-5.777,2.606-9.122
						c1.644-3.345,3.624-6.078,5.078-8.012c0.732-0.967,1.342-1.734,1.773-2.258C511.946,276.141,512.199,275.863,512.227,275.884z"
						/>
				</g>
			</g>
		</g>
		<g>
			<g>
				<path style="fill:#FFBE9D;" d="M631.107,226.932l-3.037-8.808l-22.177-14.719l-16.568-11.781l0.98,14.894
					c0,0,1.201,18.021,5.523,21.314c2.219,1.691,7.149,1.281,7.149,1.281l1.797,3.963L631.107,226.932z"/>
			</g>
			<g>
				<g>
					<path style="fill:#EB996E;" d="M604.775,233.076c-0.131,0.059-1.042-1.667-2.034-3.855c-0.993-2.189-1.691-4.011-1.56-4.07
						c0.131-0.059,1.042,1.666,2.034,3.855C604.207,231.195,604.906,233.017,604.775,233.076z"/>
				</g>
			</g>
			<g>
				<path style="fill:#263238;" d="M628.07,218.124c-4.001,2.144-6.57,3.389-11.069,3.987c-4.5,0.598-9.278-0.073-13.095-2.53
					c-3.817-2.456-6.503-6.851-6.279-11.385c0.037-0.742,0.14-1.525-0.178-2.196c-0.318-0.671-1.276-1.094-1.821-0.589
					c-0.304,0.282-1.596,1.725-1.933,1.967c-0.635,0.457-0.682-1.088-0.68-1.87c0.018-6.343-1.35-9.614-2.607-11.279
					c-1.993-2.64-2.754-6.084-1.529-9.156c1.409-3.536,4.5-6.313,8.591-8.473c6.179-3.262,13.434-3.803,20.11-1.741
					c6.515,2.012,6.345,1.463,9.645,5.848c3.343,4.443,4.861,13.148,2.477,19.669L628.07,218.124"/>
			</g>
			<g>
				<g>
					<g>
						<path style="fill:#263238;" d="M582.777,178.675c-0.122-1.411,0.403-2.925,1.552-3.754c1.148-0.829,2.929-0.776,3.861,0.289
							c-0.534-1.901,1.02-4.093,2.99-4.218c1.856-0.118,3.44,1.285,5.234,1.776c1.751,0.48,3.63,0.065,5.315-0.613
							c1.684-0.678,3.259-1.615,4.964-2.237c3.557-1.299,7.624-1.136,11.066,0.444c3.442,1.58,6.217,4.558,7.55,8.103
							c2.489-0.778,5.318,0.486,6.853,2.595c1.535,2.109,1.929,4.878,1.623,7.468c-0.206,1.75-0.713,3.441-1.301,5.107
							c0,0.146,0.015,0.29,0.012,0.437c-0.118,6.259-5.116,23.873-5.116,23.873c-4.654,0.071-1.925-18.92-1.925-18.92
							c-5.712-2.207-3.584-10.765-5.012-12.063c-1.428-1.298-4.416-4.315-16.374,1.797c-4.644,2.373-10.818,2.299-14.188,1.535
							c-0.099-0.021-0.199-0.036-0.297-0.061c-0.021-0.005-0.048-0.009-0.069-0.014c-0.037-0.009-0.063-0.03-0.099-0.04
							c-1.075-0.28-2.111-0.696-3.067-1.301c-1.083-0.686-2.068-1.613-2.527-2.81c-0.459-1.197-0.287-2.69,0.653-3.563
							C583.59,181.396,582.899,180.086,582.777,178.675z"/>
					</g>
				</g>
			</g>
			<g>
				<g>
					<g>
						<g>
							<g>
								<g>
									<path style="fill:#FFBE9D;" d="M595.101,205.996c0.24-0.831,5.964-4.159,7.622,2.466c1.658,6.626-5.336,6.924-5.395,6.736
										C597.269,215.012,595.101,205.996,595.101,205.996z"/>
								</g>
							</g>
						</g>
					</g>
				</g>
				<g>
					<g>
						<g>
							<g>
								<g>
									<g>
										<path style="fill:#EB996E;" d="M598.724,212.182c0.024-0.028,0.136,0.052,0.353,0.093
											c0.212,0.039,0.554,0.018,0.867-0.198c0.636-0.432,0.947-1.691,0.68-2.893c-0.134-0.607-0.404-1.15-0.736-1.572
											c-0.324-0.434-0.722-0.694-1.09-0.669c-0.371,0.007-0.568,0.28-0.602,0.487c-0.042,0.208,0.033,0.329,0.001,0.349
											c-0.015,0.021-0.17-0.075-0.185-0.362c-0.005-0.138,0.033-0.314,0.157-0.48c0.127-0.169,0.344-0.294,0.596-0.329
											c0.52-0.093,1.097,0.263,1.463,0.726c0.394,0.459,0.712,1.065,0.862,1.747c0.292,1.346-0.079,2.766-0.968,3.283
											c-0.436,0.238-0.86,0.195-1.099,0.089C598.776,212.34,598.704,212.2,598.724,212.182z"/>
									</g>
								</g>
							</g>
						</g>
					</g>
				</g>
			</g>
			<g>
				<g>
					<path style="fill:#455A64;" d="M606.86,193.553c-0.007,0.035-0.314,0.006-0.866-0.078c-0.554-0.077-1.345-0.247-2.31-0.507
						c-1.93-0.515-4.542-1.498-7.176-3.059c-2.631-1.568-4.743-3.393-6.118-4.842c-0.69-0.724-1.217-1.338-1.549-1.787
						c-0.338-0.445-0.51-0.701-0.482-0.724c0.068-0.056,0.862,0.885,2.291,2.25c1.425,1.366,3.537,3.113,6.124,4.656
						c2.591,1.535,5.134,2.554,7.015,3.154C605.671,193.218,606.877,193.467,606.86,193.553z"/>
				</g>
			</g>
		</g>
		<g>
			<g>
				<path style="fill:#f49d0b;" d="M631.126,225.551c0,0,22.927,6.159,26.166,9.485c0.945,0.97-0.414,6.367,1.306,12.798
					c4.174,15.609,16.006,43.569,17.157,56.83c1.625,18.724-2.513,44.635-6.833,52.081c-0.135,0.233-0.281,0.466-0.439,0.699
					c-6.442,9.558-21.076,8.328-26.207-1.994c-2.999-6.032-6.889-11.555-11.265-12.198c-8.299-1.219-20.393-10.267-22.675-14.987
					c-2.282-4.72-2.138-15.505-2.138-15.505s-2.314-6.441-3.055-9.935c-1.209-5.701-3.476-23.913-3.476-23.913l0.145-39.78
					l4.962-6.057L631.126,225.551z"/>
			</g>
			<g>
				<g>
					<path style="fill:#263238;" d="M604.896,309.095c0.081-0.024,0.494,1.272,1.274,3.316c0.78,2.043,2.015,4.805,3.885,7.566
						c1.854,2.769,3.755,5.139,5.063,6.902c0.661,0.877,1.188,1.593,1.542,2.096c0.354,0.502,0.537,0.791,0.509,0.813
						c-0.058,0.045-0.944-0.985-2.34-2.681c-1.383-1.705-3.33-4.039-5.208-6.842c-1.895-2.797-3.102-5.641-3.797-7.728
						c-0.348-1.046-0.6-1.901-0.745-2.5C604.928,309.44,604.862,309.106,604.896,309.095z"/>
				</g>
			</g>
			<g>
				<path style="fill:#f49d0b;" d="M604.902,233.575c6.88,12.185,18.509,21.604,31.858,25.802c4.864,1.53,10.789,2.163,14.509-1.325
					c2.318-2.174,5.458-7.289,7.406-9.8c1.73-2.23,2.771-2.551,4.478-4.799c1.611-2.122,3.373-3.639,2.912-6.423
					c-0.63-3.804-4.83-5.727-8.466-7.01c-6.712-2.369-13.424-4.737-20.136-7.106c-1.535-0.542-3.167-1.091-4.76-0.753
					C631.111,222.501,604.444,232.013,604.902,233.575"/>
			</g>
			<g>
				<path style="fill:#f49d0b;" d="M614.583,237.665l-12.999,3.118c-1.618,0.388-3.19,0.945-4.692,1.661l-20.935,9.986
					l-23.338,4.664l-23.974,5.079c-4.068,0.862-7.777,2.941-10.635,5.962l-6.408,6.773l5.809,7.147
					c2.355,2.897,5.978,4.46,9.701,4.186l3.889-0.286l33.095-2.437l48.192-6.35L614.583,237.665z"/>
			</g>
			<g>
				<g>
					<path style="fill:#263238;" d="M608.321,277.042c0.028-0.022,0.321,0.281,0.824,0.846c0.5,0.569,1.233,1.384,2.151,2.376
						c1.834,1.987,4.47,4.638,7.61,7.311c3.146,2.669,6.188,4.842,8.445,6.332c1.128,0.746,2.049,1.338,2.692,1.74
						c0.64,0.406,0.986,0.645,0.968,0.677c-0.018,0.031-0.397-0.149-1.07-0.501c-0.675-0.349-1.63-0.895-2.788-1.605
						c-2.318-1.417-5.417-3.559-8.583-6.246c-3.161-2.691-5.775-5.404-7.547-7.463c-0.888-1.029-1.58-1.883-2.033-2.493
						C608.531,277.41,608.293,277.064,608.321,277.042z"/>
				</g>
			</g>
			<g>
				<g>
					<path style="fill:#263238;" d="M608.321,277.042c0.035-0.009,0.169,0.354,0.382,1.018c0.242,0.774,0.536,1.713,0.88,2.816
						c0.742,2.377,1.796,5.649,3.118,9.206c1.326,3.557,2.665,6.724,3.649,9.012c0.456,1.062,0.844,1.966,1.163,2.711
						c0.269,0.643,0.403,1.006,0.371,1.022c-0.033,0.015-0.228-0.318-0.554-0.935c-0.328-0.616-0.778-1.52-1.315-2.646
						c-1.072-2.253-2.47-5.409-3.802-8.982c-1.328-3.572-2.331-6.876-2.984-9.285c-0.325-1.205-0.572-2.184-0.722-2.866
						C608.354,277.432,608.286,277.051,608.321,277.042z"/>
				</g>
			</g>
			<g>
				<g>
					<path style="fill:#263238;" d="M616.975,274.941c0.011,0.034-0.318,0.171-0.923,0.388c-0.604,0.219-1.488,0.508-2.588,0.842
						c-2.199,0.669-5.271,1.486-8.707,2.193c-3.438,0.705-6.584,1.166-8.868,1.418c-1.142,0.127-2.068,0.21-2.71,0.247
						c-0.642,0.039-0.998,0.043-1.001,0.008c-0.008-0.077,1.398-0.273,3.663-0.619c2.265-0.345,5.388-0.861,8.812-1.564
						c3.422-0.705,6.495-1.462,8.713-2.038C615.583,275.242,616.953,274.868,616.975,274.941z"/>
				</g>
			</g>
			<g>
				<g>
					<path style="fill:#263238;" d="M566.276,278.551c-0.001,0.036-0.231,0.053-0.652,0.053c-0.421,0.011-1.031-0.058-1.769-0.217
						c-0.741-0.151-1.597-0.452-2.5-0.886c-0.891-0.456-1.822-1.059-2.69-1.827c-0.857-0.78-1.557-1.641-2.107-2.478
						c-0.529-0.851-0.921-1.669-1.151-2.39c-0.238-0.716-0.373-1.315-0.407-1.735c-0.045-0.419-0.053-0.649-0.017-0.654
						c0.095-0.015,0.221,0.903,0.769,2.26c0.266,0.681,0.677,1.451,1.207,2.255c0.551,0.79,1.232,1.605,2.054,2.354
						c0.833,0.736,1.717,1.326,2.562,1.788c0.856,0.44,1.666,0.765,2.372,0.956C565.354,278.429,566.28,278.454,566.276,278.551z"/>
				</g>
			</g>
			<g>
				<g>
					<path style="fill:#263238;" d="M573.57,274.673c-0.082-0.043,0.294-0.748,0.612-1.967c0.324-1.214,0.505-2.971,0.161-4.858
						c-0.355-1.886-1.154-3.462-1.891-4.479c-0.734-1.024-1.337-1.547-1.276-1.617c0.029-0.041,0.728,0.387,1.568,1.393
						c0.841,0.996,1.74,2.63,2.111,4.608c0.362,1.979,0.109,3.826-0.32,5.057C574.111,274.051,573.612,274.702,573.57,274.673z"/>
				</g>
			</g>
			<g>
				<g>
					<path style="fill:#263238;" d="M575.958,252.43c0.014,0.07-1.281,0.397-3.386,0.868c-2.105,0.471-5.02,1.086-8.247,1.733
						c-3.227,0.647-6.155,1.203-8.279,1.578c-2.109,0.372-3.481,0.577-3.426,0.485c-0.082-0.048,1.263-0.382,3.354-0.846
						c2.106-0.468,5.021-1.081,8.249-1.728c3.226-0.647,6.153-1.205,8.276-1.583C574.623,252.559,575.944,252.36,575.958,252.43z"/>
				</g>
			</g>
			<g>
				<g>
					<path style="fill:#263238;" d="M618.347,239.421c-0.01,0.095-1.782-0.108-4.649-0.093c-1.433,0-3.138,0.097-5.019,0.299
						c-1.879,0.226-3.932,0.57-6.053,1.089c-2.117,0.536-4.093,1.196-5.858,1.878c-1.756,0.705-3.307,1.418-4.573,2.09
						c-2.539,1.331-4.008,2.342-4.062,2.262c-0.021-0.029,0.332-0.302,0.99-0.771c0.651-0.477,1.64-1.103,2.897-1.815
						c1.254-0.719,2.804-1.475,4.57-2.212c1.774-0.714,3.769-1.395,5.911-1.938c2.146-0.525,4.227-0.859,6.128-1.061
						c1.904-0.177,3.628-0.237,5.073-0.19c1.444,0.039,2.611,0.129,3.41,0.244C617.912,239.311,618.352,239.386,618.347,239.421z"/>
				</g>
			</g>
			<g>
				<g>
					<path style="fill:#263238;" d="M627.503,269.492c-0.084-0.038,0.414-1.122,0.945-2.955c0.535-1.828,1.025-4.437,0.991-7.344
						c-0.045-2.908-0.605-5.503-1.19-7.316c-0.581-1.818-1.107-2.888-1.024-2.928c0.032-0.016,0.189,0.238,0.446,0.714
						c0.265,0.472,0.587,1.188,0.926,2.095c0.684,1.811,1.317,4.455,1.362,7.428c0.035,2.972-0.526,5.633-1.16,7.461
						c-0.315,0.916-0.617,1.641-0.869,2.12C627.686,269.249,627.536,269.507,627.503,269.492z"/>
				</g>
			</g>
			<g>
				<g>
					<path style="fill:#263238;" d="M663.889,242.491c0.014,0.011-0.109,0.202-0.358,0.555c-0.249,0.353-0.622,0.87-1.126,1.52
						c-1.02,1.268-2.498,3.22-5.039,4.805c-1.266,0.767-2.819,1.419-4.591,1.55c-1.801,0.212-3.605-0.64-5.458-0.62
						c-1.859,0.054-3.788,1.039-5.964,1.087c-2.144,0.125-4.403-0.25-6.482-1.197c-2.083-0.96-3.808-2.398-5.343-3.854
						c-1.54-1.461-2.914-2.964-4.323-4.28c-1.401-1.319-2.841-2.461-4.355-3.23c-1.509-0.785-3.08-1.128-4.52-1.194
						c-1.446-0.06-2.758,0.118-3.891,0.347c-1.135,0.228-2.099,0.5-2.884,0.73c-0.742,0.225-1.341,0.407-1.805,0.548
						c-0.413,0.126-0.633,0.184-0.639,0.167c-0.006-0.017,0.202-0.108,0.605-0.266c0.403-0.156,1-0.381,1.779-0.642
						c0.779-0.261,1.741-0.564,2.885-0.822c1.142-0.259,2.475-0.468,3.965-0.43c1.484,0.043,3.13,0.38,4.699,1.176
						c1.577,0.778,3.062,1.94,4.489,3.265c1.435,1.323,2.819,2.822,4.346,4.26c1.523,1.435,3.209,2.83,5.208,3.75
						c1.998,0.91,4.173,1.275,6.238,1.161c1.037-0.053,2.031-0.241,3.006-0.509c0.976-0.257,1.964-0.532,2.978-0.548
						c1.016-0.017,1.959,0.229,2.849,0.417c0.892,0.202,1.749,0.311,2.59,0.251c1.682-0.105,3.19-0.709,4.431-1.435
						c2.491-1.496,4.008-3.392,5.069-4.616c0.493-0.599,0.891-1.082,1.2-1.456C663.723,242.65,663.874,242.48,663.889,242.491z"/>
				</g>
			</g>
			<g style="opacity:0.4;">
				<g>
					<path d="M616.474,228.013c3.824-1.34,8.941,0.717,12.006,3.368c3.065,2.65,5.716,5.941,9.414,7.6
						c3.837,1.721,8.235,1.43,12.427,1.106c1.255-0.097,2.546-0.204,3.669-0.772c1.123-0.568,5.722-3.189,5.634-4.444
						c-0.124-1.759-2.001-2.789-3.66-3.388c-2.663-0.963-5.417-1.677-8.212-2.13c-2.914-0.472-5.911-0.67-8.659-1.748
						s-3.077-4.461-9.403-4.461c-3.767,1.45-9.328,3.379-13.095,4.829"/>
				</g>
			</g>
			<g>
				<g>
					<path style="fill:#263238;" d="M653.715,239.443c-0.024-0.036,0.597-0.551,1.863-0.841c0.626-0.131,1.457-0.135,2.263,0.235
						c0.799,0.362,1.53,1.045,2.03,1.899c1.002,1.72,1.118,3.608,0.786,4.852c-0.333,1.275-1.044,1.79-1.063,1.742
						c-0.078-0.055,0.491-0.63,0.704-1.823c0.221-1.163,0.048-2.926-0.874-4.505c-0.458-0.781-1.099-1.392-1.788-1.732
						c-0.69-0.343-1.41-0.381-2-0.305C654.448,239.141,653.751,239.533,653.715,239.443z"/>
				</g>
			</g>
			<g>
				<g>
					<path style="fill:#263238;" d="M632.468,248.334c-0.03,0.047-0.648-0.41-1.023-1.529c-0.4-1.098-0.304-2.823,0.483-4.393
						c0.765-1.576,1.809-2.779,2.644-3.541c0.84-0.762,1.456-1.105,1.493-1.053c0.12,0.118-2.194,1.787-3.667,4.817
						c-0.741,1.492-0.876,3.027-0.599,4.069C632.052,247.756,632.538,248.281,632.468,248.334z"/>
				</g>
			</g>
			<g>
				<g>
					<path style="fill:#263238;" d="M659.9,235.654c0.022,0.021-0.209,0.324-0.707,0.8c-0.502,0.468-1.282,1.102-2.356,1.712
						c-1.07,0.613-2.431,1.199-4.008,1.619c-1.575,0.425-3.357,0.68-5.226,0.778c-3.712,0.139-7.189,0.096-9.502-0.951
						c-1.146-0.491-1.951-1.13-2.425-1.632c-0.479-0.503-0.652-0.851-0.63-0.865c0.062-0.079,0.932,1.284,3.194,2.157
						c2.23,0.918,5.651,0.911,9.334,0.772c3.694-0.157,6.964-1.048,9.086-2.2C658.804,236.722,659.836,235.579,659.9,235.654z"/>
				</g>
			</g>
			<g>
				<g>
					<g>
						<path style="fill:#263238;" d="M616.708,278.588c-0.142,0.011-0.31-0.66-0.303-1.501c0.005-0.841,0.185-1.51,0.327-1.497
							c0.144,0.013,0.199,0.684,0.194,1.501C616.919,277.907,616.853,278.577,616.708,278.588z"/>
					</g>
				</g>
				<g>
					<g>
						<path style="fill:#263238;" d="M617.929,284.445c-0.135,0.051-0.43-0.564-0.659-1.372c-0.229-0.809-0.299-1.486-0.158-1.514
							c0.141-0.027,0.436,0.586,0.659,1.372C617.993,283.717,618.064,284.395,617.929,284.445z"/>
					</g>
				</g>
				<g>
					<g>
						<path style="fill:#263238;" d="M619.887,288.469c-0.121,0.077-0.389-0.151-0.597-0.51c-0.208-0.359-0.273-0.705-0.146-0.772
							c0.127-0.067,0.395,0.162,0.597,0.511C619.943,288.046,620.008,288.392,619.887,288.469z"/>
					</g>
				</g>
			</g>
			<g>
				<g>
					<g>
						<path style="fill:#263238;" d="M617.968,288.647c-0.133,0.054-0.53-0.5-0.886-1.237c-0.356-0.738-0.542-1.393-0.417-1.464
							c0.125-0.071,0.522,0.483,0.886,1.237C617.915,287.938,618.102,288.593,617.968,288.647z"/>
					</g>
				</g>
				<g>
					<g>
						<path style="fill:#263238;" d="M619.731,294.375c-0.141,0.029-0.421-0.592-0.626-1.387c-0.205-0.795-0.259-1.475-0.122-1.518
							c0.137-0.043,0.417,0.578,0.626,1.387C619.817,293.667,619.872,294.346,619.731,294.375z"/>
					</g>
				</g>
				<g>
					<g>
						<path style="fill:#263238;" d="M620.529,300.321c-0.144,0.008-0.325-0.65-0.405-1.469c-0.08-0.82-0.029-1.501,0.113-1.52
							c0.142-0.02,0.324,0.638,0.405,1.469C620.724,299.632,620.673,300.313,620.529,300.321z"/>
					</g>
				</g>
				<g>
					<g>
						<path style="fill:#263238;" d="M620.565,306.319c-0.144-0.008-0.245-0.681-0.227-1.505c0.018-0.824,0.15-1.493,0.293-1.494
							c0.144-0.001,0.246,0.672,0.227,1.505C620.84,305.658,620.709,306.327,620.565,306.319z"/>
					</g>
				</g>
				<g>
					<g>
						<path style="fill:#263238;" d="M620.001,312.295c-0.142-0.02-0.18-0.702-0.084-1.522c0.096-0.821,0.29-1.475,0.433-1.462
							c0.143,0.013,0.181,0.694,0.084,1.522C620.337,311.661,620.143,312.315,620.001,312.295z"/>
					</g>
				</g>
				<g>
					<g>
						<path style="fill:#263238;" d="M619.053,318.22c-0.143-0.019-0.152-0.7-0.02-1.521c0.132-0.821,0.353-1.467,0.495-1.442
							c0.142,0.025,0.151,0.706,0.02,1.521C619.417,317.593,619.195,318.238,619.053,318.22z"/>
					</g>
				</g>
				<g>
					<g>
						<path style="fill:#263238;" d="M619.053,324.196c-0.139,0.031-0.397-0.621-0.461-1.466c-0.066-0.845,0.074-1.525,0.215-1.52
							c0.146,0.004,0.24,0.67,0.304,1.479C619.172,323.498,619.195,324.165,619.053,324.196z"/>
					</g>
				</g>
				<g>
					<g>
						<path style="fill:#263238;" d="M621.494,329.636c-0.122,0.077-0.555-0.451-0.968-1.177c-0.413-0.727-0.641-1.366-0.511-1.428
							c0.13-0.061,0.563,0.466,0.968,1.177C621.387,328.92,621.615,329.559,621.494,329.636z"/>
					</g>
				</g>
				<g>
					<g>
						<path style="fill:#263238;" d="M624.014,335.046c-0.143,0.025-0.375-0.597-0.652-1.355c-0.272-0.759-0.49-1.392-0.358-1.462
							c0.121-0.067,0.559,0.481,0.848,1.285C624.144,334.316,624.154,335.022,624.014,335.046z"/>
					</g>
				</g>
				<g>
					<g>
						<path style="fill:#263238;" d="M623.075,340.018c-0.11-0.097,0.117-0.528,0.362-1.051c0.251-0.521,0.453-0.969,0.597-0.94
							c0.137,0.024,0.156,0.57-0.127,1.165C623.625,339.788,623.178,340.114,623.075,340.018z"/>
					</g>
				</g>
			</g>
			<g style="opacity:0.3;">
				<g>
					<path d="M611.783,287.583c2.517,7.771,4.995,13.154,9.749,19.796c1.104,1.542,2.027,3.49,3.756,4.27
						c1.729,0.78,4.105,0.456,5.047-1.191c0.948-1.657,0.086-3.759-1.013-5.321c-1.098-1.562-2.488-3.088-2.652-4.99
						c-0.096-1.117,0.253-2.236,0.161-3.353c-0.254-3.074-3.171-5.148-5.737-6.861c-3.492-2.331-6.011-5.469-9.645-8.903
						c-0.89-0.841-2.929-3.741-2.929-3.741s-0.261-0.249-0.08,0.199C609.346,279.721,611.22,285.188,611.783,287.583"/>
				</g>
			</g>
			<g style="opacity:0.3;">
				<g>
					<path d="M606.246,313.755c2.706,7.551,5.63,15.435,11.625,20.764c0.571,0.508,1.197,1.003,1.945,1.162
						c0.747,0.158,1.641-0.126,1.951-0.825c0.47-1.061-0.582-2.132-1.493-2.85c-5.572-4.391-10.657-12.677-13.827-19.024"/>
				</g>
			</g>
			<g style="opacity:0.3;">
				<g>
					<path d="M626.865,243.093c3.303,5.657,8.073,10.449,13.715,13.778c1.427,0.842,3.064,1.615,4.683,1.266
						c1.717-0.37,2.979-1.916,4.678-2.36c2.052-0.535,4.221,0.652,6.31,0.288c1.602-0.279,2.991-1.539,3.423-3.106
						c0.433-1.567-0.113-3.361-1.344-4.423c-1.9,1.273-4.185,1.965-6.473,1.959c-2.056-0.005-4.095-0.557-6.147-0.425
						c-1.808,0.117-3.546,0.761-5.35,0.93c-4.941,0.463-9.572-2.718-12.645-6.614"/>
				</g>
			</g>
			<g style="opacity:0.3;">
				<g>
					<path d="M548.892,284.603c7.683-0.532,14.683-0.938,22.285-2.018c-4.701-2.512-10.6-5.193-15.92-5.524
						c-3.342-0.208-6.676,0.486-9.901,1.386c-6.37,1.778-12.51,4.38-18.218,7.72L548.892,284.603z"/>
				</g>
			</g>
			<g>
				<g>
					<path style="fill:#FAFAFA;" d="M595.487,278.761c-0.011-0.002-0.001-0.121,0.028-0.345c0.041-0.285,0.086-0.607,0.139-0.978
						c0.137-0.846,0.285-2.078,0.412-3.603c0.136-1.525,0.195-3.349,0.16-5.371c-0.059-2.022-0.226-4.242-0.569-6.551
						c-0.361-2.307-0.863-4.477-1.409-6.425c-0.57-1.941-1.17-3.664-1.754-5.08c-0.576-1.418-1.084-2.551-1.467-3.317
						c-0.161-0.339-0.3-0.632-0.424-0.892c-0.094-0.206-0.139-0.316-0.129-0.321s0.073,0.095,0.185,0.292
						c0.139,0.253,0.296,0.538,0.477,0.867c0.417,0.751,0.958,1.874,1.563,3.287c0.613,1.411,1.238,3.136,1.827,5.084
						c0.565,1.955,1.079,4.136,1.442,6.458c0.345,2.324,0.505,4.559,0.548,6.593c0.019,2.035-0.064,3.867-0.228,5.397
						c-0.156,1.529-0.338,2.762-0.512,3.604c-0.075,0.368-0.139,0.687-0.197,0.97C595.529,278.648,595.498,278.763,595.487,278.761z
						"/>
				</g>
			</g>
			<g>
				<g>
					<path style="fill:#FAFAFA;" d="M568.881,282.838c-0.011,0-0.026-0.098-0.045-0.286c-0.021-0.248-0.044-0.518-0.069-0.821
						c-0.048-0.713-0.137-1.744-0.267-3.014c-0.261-2.54-0.768-6.038-1.704-9.819c-0.942-3.781-2.13-7.11-3.088-9.477
						c-0.479-1.184-0.883-2.136-1.174-2.789c-0.119-0.28-0.225-0.529-0.323-0.758c-0.071-0.175-0.103-0.269-0.094-0.274
						s0.061,0.08,0.15,0.246c0.114,0.222,0.237,0.463,0.377,0.734c0.326,0.638,0.761,1.579,1.267,2.756
						c1.013,2.352,2.24,5.687,3.187,9.487c0.94,3.8,1.415,7.321,1.62,9.874c0.103,1.277,0.158,2.312,0.169,3.029
						c0.004,0.305,0.007,0.576,0.01,0.825C568.898,282.738,568.892,282.838,568.881,282.838z"/>
				</g>
			</g>
			<g>
				<g>
					<path style="fill:#FAFAFA;" d="M545.447,284.717c-0.006,0.009-0.091-0.038-0.248-0.136c-0.206-0.134-0.429-0.279-0.679-0.442
						c-0.297-0.19-0.652-0.434-1.038-0.753c-0.389-0.314-0.853-0.649-1.305-1.089c-0.948-0.831-1.979-1.931-3.015-3.239
						c-1.01-1.327-2.011-2.873-2.865-4.601c-0.834-1.739-1.433-3.481-1.854-5.095c-0.39-1.622-0.62-3.112-0.689-4.371
						c-0.068-0.627-0.045-1.199-0.052-1.699c-0.013-0.501,0.014-0.931,0.047-1.281c0.026-0.297,0.05-0.562,0.071-0.807
						c0.02-0.184,0.035-0.28,0.046-0.279c0.011,0.001,0.016,0.099,0.017,0.284c-0.004,0.245-0.008,0.51-0.012,0.807
						c-0.015,0.35-0.024,0.778,0.006,1.274c0.024,0.496,0.017,1.063,0.098,1.683c0.096,1.246,0.347,2.717,0.748,4.318
						c0.432,1.593,1.032,3.311,1.856,5.03c0.844,1.708,1.826,3.24,2.813,4.562c1.012,1.303,2.015,2.407,2.937,3.252
						c0.438,0.447,0.889,0.79,1.265,1.116c0.373,0.33,0.715,0.587,0.999,0.791c0.237,0.18,0.448,0.34,0.643,0.488
						C545.38,284.644,545.453,284.708,545.447,284.717z"/>
				</g>
			</g>
			<g>
				<g>
					<path style="fill:#FAFAFA;" d="M618.969,241.423c0.008-0.007,0.097,0.073,0.259,0.233c0.159,0.164,0.407,0.392,0.691,0.72
						c0.587,0.638,1.383,1.615,2.236,2.914c1.709,2.574,3.529,6.611,3.956,11.366c0.428,4.756-0.642,9.053-1.864,11.891
						c-0.607,1.43-1.216,2.533-1.68,3.266c-0.221,0.373-0.425,0.642-0.552,0.832c-0.131,0.187-0.204,0.281-0.213,0.276
						c-0.022-0.015,0.232-0.42,0.66-1.169c0.43-0.748,1.004-1.859,1.58-3.287c1.16-2.836,2.18-7.086,1.757-11.779
						c-0.422-4.692-2.184-8.692-3.831-11.275c-0.821-1.303-1.585-2.294-2.141-2.953C619.273,241.795,618.95,241.441,618.969,241.423
						z"/>
				</g>
			</g>
			<g>
				<g>
					<path style="fill:#FAFAFA;" d="M661.516,260.521c0.003,0.01-0.1,0.053-0.3,0.125c-0.26,0.089-0.549,0.188-0.879,0.302
						c-0.764,0.261-1.884,0.597-3.279,0.971c-2.788,0.752-6.705,1.579-11.093,2.042c-4.39,0.456-8.394,0.459-11.277,0.3
						c-1.442-0.078-2.607-0.174-3.409-0.271c-0.347-0.043-0.65-0.08-0.923-0.113c-0.211-0.029-0.32-0.05-0.319-0.061
						c0.001-0.011,0.113-0.011,0.326-0.002c0.274,0.016,0.578,0.034,0.927,0.055c0.804,0.06,1.968,0.122,3.407,0.171
						c2.878,0.102,6.863,0.064,11.235-0.39c4.37-0.461,8.276-1.25,11.07-1.946c1.398-0.346,2.524-0.648,3.298-0.874
						c0.337-0.092,0.631-0.173,0.896-0.246C661.403,260.534,661.513,260.511,661.516,260.521z"/>
				</g>
			</g>
			<g>
				<g>
					<path style="fill:#FAFAFA;" d="M670.077,282.142c0.001,0.011-0.161,0.032-0.471,0.063c-0.37,0.033-0.816,0.073-1.353,0.12
						c-1.176,0.092-2.875,0.249-4.971,0.469c-4.192,0.437-9.968,1.211-16.276,2.462c-6.309,1.259-11.942,2.754-15.982,3.955
						c-2.021,0.599-3.65,1.104-4.772,1.469c-0.514,0.161-0.941,0.295-1.296,0.407c-0.297,0.09-0.455,0.132-0.459,0.122
						c-0.003-0.01,0.148-0.072,0.438-0.181c0.349-0.126,0.771-0.279,1.278-0.462c1.11-0.4,2.731-0.939,4.746-1.565
						c4.029-1.257,9.664-2.789,15.985-4.05c6.32-1.253,12.112-1.994,16.315-2.375c2.102-0.192,3.805-0.315,4.984-0.37
						c0.539-0.024,0.986-0.045,1.357-0.062C669.913,282.131,670.077,282.131,670.077,282.142z"/>
				</g>
			</g>
			<g>
				<g>
					<path style="fill:#FAFAFA;" d="M619.66,310.165c-0.001,0.022-0.233,0.025-0.653,0.013c-0.42-0.009-1.026-0.05-1.772-0.125
						c-1.493-0.148-3.549-0.477-5.763-1.075c-2.214-0.602-4.155-1.356-5.518-1.982c-0.682-0.312-1.226-0.583-1.593-0.787
						c-0.368-0.202-0.566-0.322-0.557-0.341c0.023-0.045,0.858,0.355,2.238,0.925c1.379,0.571,3.315,1.286,5.512,1.884
						c2.197,0.593,4.229,0.954,5.708,1.157C618.74,310.039,619.663,310.115,619.66,310.165z"/>
				</g>
			</g>
			<g>
				<g>
					<path style="fill:#FAFAFA;" d="M675.567,310.559c0,0-0.19,0.061-0.558,0.146c-0.424,0.095-0.958,0.213-1.612,0.359
						c-1.474,0.307-3.488,0.728-5.945,1.24c-5.027,0.999-12.001,2.335-19.802,3.079c-7.803,0.75-14.935,0.567-20.029-0.079
						c-2.549-0.311-4.595-0.681-5.996-0.989c-0.703-0.141-1.242-0.289-1.609-0.375c-0.366-0.092-0.555-0.155-0.555-0.155
						s0.198,0.022,0.569,0.094c0.372,0.067,0.913,0.195,1.619,0.317c1.406,0.271,3.453,0.608,5.998,0.889
						c5.086,0.588,12.191,0.736,19.975-0.012c7.782-0.742,14.753-2.041,19.789-2.985c2.465-0.472,4.485-0.859,5.963-1.143
						c0.659-0.122,1.196-0.222,1.624-0.302C675.368,310.578,675.567,310.559,675.567,310.559z"/>
				</g>
			</g>
			<g>
				<g>
					<path style="fill:#FAFAFA;" d="M623.122,334.239c-0.017,0.085-0.207,0.118-0.425,0.074c-0.218-0.044-0.38-0.147-0.364-0.232
						c0.017-0.085,0.207-0.118,0.425-0.074C622.977,334.05,623.139,334.154,623.122,334.239z"/>
				</g>
			</g>
			<g>
				<g>
					<path style="fill:#FAFAFA;" d="M671.605,350.806c0,0-0.473,0.589-1.519,1.456c-1.041,0.862-2.701,1.982-5.001,2.797
						c-2.282,0.81-5.256,1.272-8.439,0.66c-3.161-0.585-6.516-2.195-9.083-4.918c-2.543-2.73-4.184-5.911-6.467-8.135
						c-2.268-2.24-4.959-3.442-7.226-4.211c-2.288-0.763-4.209-1.159-5.527-1.452c-0.614-0.131-1.117-0.239-1.523-0.325
						c-0.348-0.076-0.528-0.132-0.528-0.132s0.188,0.014,0.539,0.07c0.409,0.071,0.916,0.16,1.535,0.268
						c1.327,0.257,3.259,0.62,5.573,1.362c2.291,0.748,5.033,1.941,7.359,4.216c2.334,2.256,3.99,5.446,6.491,8.125
						c2.517,2.67,5.806,4.26,8.91,4.85c3.125,0.617,6.051,0.187,8.314-0.586c2.279-0.777,3.94-1.856,4.997-2.683
						c0.535-0.41,0.926-0.76,1.186-1.002C671.457,350.923,671.605,350.806,671.605,350.806z"/>
				</g>
			</g>
			<g>
				<g>
					<path style="fill:#FAFAFA;" d="M646.109,249.641c-0.031,0.017-0.315-0.419-0.621-1.199c-0.307-0.777-0.601-1.912-0.658-3.194
						c-0.053-1.282,0.142-2.439,0.38-3.24c0.237-0.803,0.483-1.262,0.515-1.248c0.102,0.026-0.708,1.961-0.583,4.474
						C645.234,247.749,646.208,249.607,646.109,249.641z"/>
				</g>
			</g>
			<g>
				<g>
					<path style="fill:#FAFAFA;" d="M663.741,233.432c-0.043,0.085-0.973-0.459-2.248-0.473c-1.276-0.038-2.226,0.468-2.266,0.381
						c-0.058-0.056,0.896-0.729,2.273-0.693C662.876,232.666,663.802,233.378,663.741,233.432z"/>
				</g>
			</g>
			<g>
				<g>
					<path style="fill:#FAFAFA;" d="M615.935,236.709c-0.021-0.004-0.008-0.159,0.034-0.438c0.037-0.28,0.133-0.679,0.286-1.161
						c0.302-0.964,0.917-2.249,1.907-3.446c0.995-1.193,2.145-2.035,3.037-2.509c0.445-0.239,0.82-0.406,1.088-0.494
						c0.267-0.093,0.417-0.134,0.424-0.114c0.064,0.091-2.372,0.945-4.309,3.317C616.428,234.203,616.035,236.755,615.935,236.709z"
						/>
				</g>
			</g>
		</g>
	</g>
</g>
<g id="Plant">
	<g>
		<g>
			<g>
				<path style="fill:#f49d0b;" d="M695.982,298.871c1.806,0.784,3.135,2.454,3.802,4.306c0.667,1.853,0.727,3.877,0.505,5.833
					c-0.429,3.785-2.58,7.607-4.896,10.632c-3.188-2.782-3.921-7.635-4.138-10.12C690.91,305.594,692.675,298.286,695.982,298.871"
					/>
			</g>
		</g>
		<g>
			<g>
				<path style="fill:#f49d0b;" d="M699.098,325.89c-0.51-2.139,0.38-4.487,2.022-5.95c1.642-1.463,3.937-2.082,6.13-1.915
					c1.014,0.078,2.11,0.373,2.691,1.208c0.543,0.781,0.482,1.87,0.041,2.713c-0.44,0.843-1.203,1.473-2.008,1.978
					C705.212,325.658,702.221,326.828,699.098,325.89"/>
			</g>
		</g>
		<g>
			<g>
				<g>
					<path style="fill:#263238;" d="M695.01,337.497c-0.019-0.004,0.025-0.28,0.114-0.777c0.1-0.547,0.23-1.253,0.385-2.102
						c0.352-1.757,0.805-4.273,2.17-6.716c1.347-2.437,3.232-4.231,4.82-5.122c0.788-0.456,1.478-0.728,1.965-0.869
						c0.24-0.081,0.437-0.112,0.566-0.144c0.131-0.027,0.2-0.037,0.202-0.028c0.023,0.062-1.104,0.264-2.633,1.208
						c-1.533,0.917-3.354,2.693-4.679,5.089c-1.339,2.392-1.819,4.874-2.22,6.621c-0.193,0.881-0.35,1.595-0.472,2.085
						C695.107,337.233,695.028,337.501,695.01,337.497z"/>
				</g>
			</g>
		</g>
		<g>
			<g>
				<g>
					<path style="fill:#263238;" d="M695.13,304.555c0.01,0,0.023,0.116,0.039,0.34c0.015,0.252,0.034,0.575,0.058,0.976
						c0.045,0.848,0.095,2.074,0.144,3.591c0.098,3.033,0.175,7.226,0.156,11.856c-0.021,4.632-0.134,8.824-0.259,11.857
						c-0.062,1.516-0.122,2.742-0.175,3.59c-0.027,0.4-0.049,0.723-0.066,0.975c-0.018,0.223-0.032,0.34-0.042,0.339
						c-0.009,0-0.014-0.118-0.014-0.341c0.004-0.252,0.008-0.576,0.014-0.977c0.021-0.883,0.051-2.101,0.087-3.591
						c0.075-3.033,0.157-7.222,0.178-11.852c0.019-4.628-0.027-8.818-0.075-11.851c-0.023-1.491-0.042-2.709-0.056-3.592
						c-0.003-0.401-0.004-0.725-0.006-0.977C695.115,304.673,695.12,304.556,695.13,304.555z"/>
				</g>
			</g>
		</g>
		<g>
			<g>
				<path style="fill:#f49d0b;" d="M693.583,328.195c-0.725-4.58-3.812-8.721-7.994-10.724c-1.065-0.51-2.456-0.844-3.332-0.051
					c-0.877,0.794-0.681,2.218-0.251,3.32c1.785,4.587,6.581,7.825,11.502,7.767"/>
			</g>
		</g>
		<g>
			<g>
				<g>
					<path style="fill:#263238;" d="M686.105,321.061c0.008-0.017,0.248,0.088,0.676,0.295c0.215,0.102,0.478,0.228,0.764,0.407
						c0.286,0.179,0.633,0.354,0.973,0.61c0.348,0.246,0.736,0.507,1.113,0.838c0.396,0.309,0.781,0.681,1.185,1.076
						c0.785,0.809,1.576,1.776,2.251,2.893c0.665,1.123,1.147,2.276,1.483,3.353c0.152,0.544,0.298,1.06,0.375,1.557
						c0.108,0.491,0.148,0.957,0.191,1.381c0.059,0.423,0.039,0.81,0.053,1.148c0.015,0.338-0.006,0.629-0.026,0.866
						c-0.035,0.475-0.063,0.735-0.082,0.733c-0.062-0.002,0.046-1.053-0.139-2.727c-0.055-0.417-0.106-0.875-0.222-1.357
						c-0.085-0.487-0.237-0.993-0.393-1.526c-0.344-1.055-0.824-2.183-1.477-3.287c-0.663-1.097-1.434-2.051-2.197-2.857
						c-0.392-0.393-0.765-0.767-1.15-1.079c-0.366-0.334-0.742-0.6-1.078-0.854C687.037,321.551,686.077,321.114,686.105,321.061z"
						/>
				</g>
			</g>
		</g>
	</g>
</g>
<g id="Moon">
	<g>
		<g>
			<path style="fill:#263238;" d="M466.25,65.97c0-6.724,2.406-12.884,6.401-17.673c-6.07,5.064-9.935,12.683-9.935,21.206
				c0,15.247,12.36,27.607,27.607,27.607c8.523,0,16.142-3.865,21.206-9.935c-4.789,3.995-10.949,6.401-17.673,6.401
				C478.61,93.577,466.25,81.217,466.25,65.97z"/>
		</g>
	</g>
</g>
<g id="Starts">
	<g>
		<g>
			<path style="fill:#f49d0b;" d="M177.384,70.864l0.424,0.776c0.16,0.293,0.401,0.533,0.693,0.693l0.776,0.424l-0.776,0.424
				c-0.292,0.16-0.533,0.4-0.693,0.693l-0.424,0.776l-0.424-0.776c-0.16-0.292-0.4-0.533-0.693-0.693l-0.776-0.424l0.776-0.424
				c0.292-0.16,0.533-0.4,0.693-0.693L177.384,70.864z"/>
		</g>
	</g>
	<g>
		<g>
			<path style="fill:#455A64;" d="M230.476,264.263l0.424,0.776c0.16,0.293,0.4,0.533,0.693,0.693l0.776,0.424l-0.776,0.424
				c-0.292,0.16-0.533,0.4-0.693,0.693l-0.424,0.776l-0.424-0.776c-0.16-0.293-0.4-0.533-0.693-0.693l-0.776-0.424l0.776-0.424
				c0.292-0.16,0.533-0.4,0.693-0.693L230.476,264.263z"/>
		</g>
	</g>
	<g>
		<g>
			<path style="fill:#455A64;" d="M147.545,208.712l0.424,0.776c0.16,0.293,0.4,0.533,0.693,0.693l0.776,0.424l-0.776,0.424
				c-0.292,0.16-0.533,0.4-0.693,0.693l-0.424,0.776l-0.424-0.776c-0.16-0.293-0.401-0.533-0.693-0.693l-0.776-0.424l0.776-0.424
				c0.292-0.16,0.533-0.4,0.693-0.693L147.545,208.712z"/>
		</g>
	</g>
	<g>
		<g>
			<path style="fill:#455A64;" d="M66.42,167.154l0.424,0.776c0.16,0.292,0.4,0.533,0.693,0.693l0.776,0.424l-0.776,0.424
				c-0.292,0.16-0.533,0.4-0.693,0.693l-0.424,0.776l-0.424-0.776c-0.16-0.293-0.4-0.533-0.693-0.693l-0.776-0.424l0.776-0.424
				c0.293-0.16,0.533-0.4,0.693-0.693L66.42,167.154z"/>
		</g>
	</g>
	<g>
		<g>
			<path style="fill:#455A64;" d="M494.732,174.547l0.424,0.776c0.16,0.292,0.4,0.533,0.693,0.693l0.776,0.424l-0.776,0.424
				c-0.293,0.16-0.533,0.4-0.693,0.693l-0.424,0.776l-0.424-0.776c-0.16-0.293-0.4-0.533-0.693-0.693l-0.776-0.424l0.776-0.424
				c0.292-0.16,0.533-0.4,0.693-0.693L494.732,174.547z"/>
		</g>
	</g>
	<g>
		<g>
			<path style="fill:#455A64;" d="M549.042,220.589l0.424,0.776c0.16,0.292,0.401,0.533,0.693,0.693l0.776,0.424l-0.776,0.424
				c-0.292,0.16-0.533,0.4-0.693,0.693l-0.424,0.776l-0.424-0.776c-0.16-0.292-0.401-0.533-0.693-0.693l-0.776-0.424l0.776-0.424
				c0.292-0.16,0.533-0.401,0.693-0.693L549.042,220.589z"/>
		</g>
	</g>
	<g>
		<g>
			<path style="fill:#f49d0b;" d="M456.444,155.486l0.424,0.776c0.16,0.292,0.4,0.533,0.693,0.693l0.776,0.424l-0.776,0.424
				c-0.292,0.16-0.533,0.4-0.693,0.693l-0.424,0.776l-0.424-0.776c-0.16-0.292-0.4-0.533-0.693-0.693l-0.776-0.424l0.776-0.424
				c0.293-0.16,0.533-0.401,0.693-0.693L456.444,155.486z"/>
		</g>
	</g>
	<g>
		<g>
			<path style="fill:#f49d0b;" d="M602.908,109.274l0.424,0.776c0.16,0.293,0.401,0.533,0.693,0.693l0.776,0.424l-0.776,0.424
				c-0.292,0.16-0.533,0.4-0.693,0.693l-0.424,0.776l-0.424-0.776c-0.16-0.293-0.401-0.533-0.693-0.693l-0.776-0.424l0.776-0.424
				c0.292-0.16,0.533-0.4,0.693-0.693L602.908,109.274z"/>
		</g>
	</g>
	<g>
		<g>
			<path style="fill:#f49d0b;" d="M138.197,121.286l1.063,1.943c0.401,0.733,1.003,1.335,1.736,1.736l1.943,1.063l-1.943,1.063
				c-0.733,0.401-1.335,1.003-1.736,1.736l-1.063,1.943l-1.063-1.943c-0.401-0.733-1.003-1.335-1.736-1.736l-1.943-1.063
				l1.943-1.063c0.733-0.401,1.335-1.003,1.736-1.736L138.197,121.286z"/>
		</g>
	</g>
	<g>
		<g>
			<path style="fill:#f49d0b;" d="M542.159,147.472l1.063,1.943c0.401,0.733,1.003,1.335,1.736,1.736l1.943,1.063l-1.943,1.063
				c-0.733,0.401-1.335,1.003-1.736,1.736l-1.063,1.943l-1.063-1.943c-0.401-0.733-1.003-1.335-1.736-1.736l-1.943-1.063
				l1.943-1.063c0.733-0.401,1.335-1.003,1.736-1.736L542.159,147.472z"/>
		</g>
	</g>
	<g>
		<g>
			<path style="fill:#f49d0b;" d="M291.775,126.027l1.063,1.943c0.401,0.733,1.003,1.335,1.736,1.736l1.943,1.063l-1.943,1.063
				c-0.733,0.401-1.335,1.003-1.736,1.736l-1.063,1.943l-1.063-1.943c-0.401-0.733-1.003-1.335-1.736-1.736l-1.943-1.063
				l1.943-1.063c0.733-0.401,1.335-1.003,1.736-1.736L291.775,126.027z"/>
		</g>
	</g>
	<g>
		<g>
			<path style="fill:#263238;" d="M198.037,152.832l1.443,2.639c0.544,0.995,1.362,1.813,2.358,2.358l2.639,1.443l-2.639,1.443
				c-0.995,0.544-1.813,1.362-2.358,2.358l-1.443,2.639l-1.443-2.639c-0.544-0.995-1.362-1.813-2.358-2.358l-2.639-1.443
				l2.639-1.443c0.995-0.544,1.813-1.363,2.358-2.358L198.037,152.832z"/>
		</g>
	</g>
	<g>
		<g>
			<path style="fill:#f49d0b;" d="M339.565,74.382l0.883,1.615c0.333,0.609,0.834,1.11,1.443,1.443l1.615,0.883l-1.615,0.883
				c-0.609,0.333-1.11,0.834-1.443,1.443l-0.883,1.615l-0.883-1.615c-0.333-0.609-0.834-1.11-1.443-1.443l-1.615-0.883l1.615-0.883
				c0.609-0.333,1.11-0.834,1.443-1.443L339.565,74.382z"/>
		</g>
	</g>
	<g>
		<g>
			<path style="fill:#f49d0b;" d="M80.354,82.266l1.815,3.319c0.685,1.252,1.714,2.281,2.965,2.965l3.319,1.815l-3.319,1.815
				c-1.252,0.685-2.281,1.714-2.965,2.965l-1.815,3.319l-1.815-3.319c-0.685-1.252-1.714-2.281-2.965-2.965l-3.319-1.815
				l3.319-1.815c1.252-0.685,2.281-1.714,2.965-2.965L80.354,82.266z"/>
		</g>
	</g>
	<g>
		<g>
			<path style="fill:#f49d0b;" d="M375.605,110.524l1.815,3.319c0.685,1.252,1.714,2.281,2.965,2.965l3.319,1.815l-3.319,1.815
				c-1.252,0.685-2.281,1.714-2.965,2.965l-1.815,3.319l-1.815-3.319c-0.685-1.252-1.714-2.281-2.965-2.965l-3.319-1.815
				l3.319-1.815c1.252-0.685,2.281-1.714,2.965-2.965L375.605,110.524z"/>
		</g>
	</g>
	<g>
		<g>
			<path style="fill:none;stroke:#F3A7AD;stroke-width:0.05;stroke-miterlimit:10;" d="M608.616,205.872"/>
		</g>
	</g>
</g>
<g id="Sea">
	<g>
		<g>
			<g>
				<path style="fill:#263238;" d="M37.71,391.351c0-0.144,91.08-0.26,203.407-0.26c112.366,0,203.427,0.117,203.427,0.26
					s-91.061,0.26-203.427,0.26C128.79,391.612,37.71,391.495,37.71,391.351z"/>
			</g>
		</g>
		<g>
			<g>
				<path style="fill:#f49d0b;" d="M421.8,396.104c0,0.144-61.506,0.26-137.359,0.26c-75.88,0-137.373-0.117-137.373-0.26
					c0-0.144,61.493-0.26,137.373-0.26C360.294,395.844,421.8,395.96,421.8,396.104z"/>
			</g>
		</g>
		<g>
			<g>
				<path style="fill:#f49d0b;" d="M394.118,401.827c0,0.144-35.204,0.26-78.62,0.26c-43.431,0-78.628-0.117-78.628-0.26
					s35.196-0.26,78.628-0.26C358.914,401.566,394.118,401.683,394.118,401.827z"/>
			</g>
		</g>
		<g>
			<g>
				<path style="fill:#f49d0b;" d="M376.105,407.836c0,0.144-18.091,0.26-40.403,0.26c-22.319,0-40.406-0.117-40.406-0.26
					s18.087-0.26,40.406-0.26C358.014,407.575,376.105,407.692,376.105,407.836z"/>
			</g>
		</g>
		<g>
			<g>
				<path style="fill:#263238;" d="M229.826,432.789c0,0.144-17.997,0.26-40.192,0.26c-22.203,0-40.195-0.117-40.195-0.26
					s17.993-0.26,40.195-0.26C211.829,432.529,229.826,432.646,229.826,432.789z"/>
			</g>
		</g>
		<g>
			<g>
				<path style="fill:#263238;" d="M167.224,440.615c0,0.144-8.441,0.26-18.851,0.26c-10.414,0-18.853-0.117-18.853-0.26
					c0-0.144,8.439-0.26,18.853-0.26C158.783,440.354,167.224,440.471,167.224,440.615z"/>
			</g>
		</g>
	</g>
</g>
<g id="Clouds">
	<g>
		<g>
			<g>
				<g>
					<g>
						<path style="fill:#f49d0b;" d="M143.19,262.226c0.685-4.977-6.339-9.071-11.616-9.496c-2.517-0.203-5.131,0.182-7.516-0.649
							c-5.166-1.801-7.229-8.475-12.27-10.601c-3.768-1.59-8.107-0.174-11.761,1.664c-3.653,1.839-7.264,4.153-11.346,4.414
							c-3.55,0.227-7.406-1.089-10.512,0.645c-2.315,1.292-3.527,3.96-5.661,5.533c-2.087,1.54-4.81,1.866-7.4,2.006
							c-2.59,0.141-5.271,0.167-7.629,1.247c-2.358,1.08-4.309,3.573-3.82,6.12L143.19,262.226z"/>
					</g>
				</g>
			</g>
			<g style="opacity:0.8;">
				<g>
					<g>
						<path style="fill:#FFFFFF;" d="M143.19,262.226c0.685-4.977-6.339-9.071-11.616-9.496c-2.517-0.203-5.131,0.182-7.516-0.649
							c-5.166-1.801-7.229-8.475-12.27-10.601c-3.768-1.59-8.107-0.174-11.761,1.664c-3.653,1.839-7.264,4.153-11.346,4.414
							c-3.55,0.227-7.406-1.089-10.512,0.645c-2.315,1.292-3.527,3.96-5.661,5.533c-2.087,1.54-4.81,1.866-7.4,2.006
							c-2.59,0.141-5.271,0.167-7.629,1.247c-2.358,1.08-4.309,3.573-3.82,6.12L143.19,262.226z"/>
					</g>
				</g>
			</g>
		</g>
	</g>
	<g>
		<g>
			<g>
				<g>
					<g>
						<g>
							<path style="fill:#f49d0b;" d="M299.864,343.605c1.979-14.377-18.311-26.203-33.557-27.432
								c-7.27-0.586-14.823,0.525-21.711-1.875c-14.923-5.201-20.884-24.481-35.446-30.623c-10.886-4.591-23.42-0.504-33.974,4.808
								c-10.554,5.312-20.984,11.996-32.775,12.751c-10.256,0.656-21.394-3.147-30.367,1.863
								c-6.687,3.733-10.189,11.438-16.353,15.984c-6.029,4.447-13.895,5.389-21.376,5.796c-7.481,0.407-15.226,0.482-22.038,3.601
								c-6.812,3.119-12.447,10.322-11.034,17.68L299.864,343.605z"/>
						</g>
					</g>
				</g>
			</g>
			<g style="opacity:0.6;">
				<g>
					<g>
						<g>
							<path style="fill:#FFFFFF;" d="M299.864,343.605c1.979-14.377-18.311-26.203-33.557-27.432
								c-7.27-0.586-14.823,0.525-21.711-1.875c-14.923-5.201-20.884-24.481-35.446-30.623c-10.886-4.591-23.42-0.504-33.974,4.808
								c-10.554,5.312-20.984,11.996-32.775,12.751c-10.256,0.656-21.394-3.147-30.367,1.863
								c-6.687,3.733-10.189,11.438-16.353,15.984c-6.029,4.447-13.895,5.389-21.376,5.796c-7.481,0.407-15.226,0.482-22.038,3.601
								c-6.812,3.119-12.447,10.322-11.034,17.68L299.864,343.605z"/>
						</g>
					</g>
				</g>
			</g>
		</g>
		<g>
			<g>
				<path style="fill:#f49d0b;" d="M260.357,344.785c0,0.009-0.147,0.018-0.434,0.027c-0.31,0.007-0.732,0.015-1.272,0.027
					c-1.145,0.012-2.788,0.03-4.892,0.052c-4.275,0.026-10.415,0.063-17.992,0.108c-15.192,0.077-36.178,0.217-59.356,0.48
					c-23.187,0.263-44.178,0.345-59.371,0.328c-7.577-0.024-13.717-0.044-17.992-0.057c-2.103-0.02-3.746-0.035-4.892-0.046
					c-0.54-0.011-0.962-0.019-1.272-0.025c-0.286-0.009-0.433-0.017-0.433-0.026c0-0.009,0.147-0.018,0.433-0.027
					c0.31-0.007,0.732-0.015,1.272-0.027c1.145-0.012,2.788-0.03,4.891-0.052c4.274-0.026,10.414-0.063,17.991-0.108
					c15.192-0.077,36.18-0.217,59.366-0.48c23.179-0.263,44.168-0.345,59.361-0.328c7.577,0.024,13.718,0.044,17.993,0.057
					c2.104,0.02,3.747,0.035,4.892,0.046c0.54,0.011,0.962,0.019,1.272,0.025C260.21,344.767,260.357,344.776,260.357,344.785z"/>
			</g>
		</g>
	</g>
</g>
</svg>
